<?xml version="1.0" encoding="UTF-8" standalone="no"?>
<!-- Created with Inkscape (http://www.inkscape.org/) -->

<svg
   version="1.1"
   id="svg1"
   width="515.36798"
   height="321.47867"
   viewBox="0 0 515.36798 321.47867"
   xmlns="http://www.w3.org/2000/svg"
   xmlns:svg="http://www.w3.org/2000/svg">
  <defs
     id="defs1">
    <clipPath
       clipPathUnits="userSpaceOnUse"
       id="clipPath22">
      <path
         d="M -28.64426,0 H 315.0696 V 206.2311 H -28.64426 Z"
         id="path22" />
    </clipPath>
  </defs>
  <g
     id="g1">
    <path
       id="path1"
       d="M -18.23141,-4.25168 V 0 M 77.72345,-4.25168 V 0 m 95.95489,-4.25168 V 0 m 95.95488,-4.25168 V 0 M -18.23141,210.48279 v -4.25169 m 95.95486,4.25169 v -4.25169 m 95.95489,4.25169 v -4.25169 m 95.95488,4.25169 v -4.25169"
       style="fill:none;stroke:#808080;stroke-width:0.19925;stroke-linecap:butt;stroke-linejoin:miter;stroke-miterlimit:10;stroke-dasharray:none;stroke-opacity:1"
       transform="matrix(1.3333333,0,0,-1.3333333,95.016,280.77333)" />
    <path
       id="path2"
       d="m -28.64426,0 h 4.25174 m -4.25174,47.96071 h 4.25174 m -4.25174,47.96072 h 4.25174 m -4.25174,47.96073 h 4.25174 m -4.25174,47.96072 h 4.25174 M 315.0696,0 h -4.25173 m 4.25173,47.96071 h -4.25173 m 4.25173,47.96072 h -4.25173 m 4.25173,47.96073 h -4.25173 m 4.25173,47.96072 h -4.25173"
       style="fill:none;stroke:#808080;stroke-width:0.19925;stroke-linecap:butt;stroke-linejoin:miter;stroke-miterlimit:10;stroke-dasharray:none;stroke-opacity:1"
       transform="matrix(1.3333333,0,0,-1.3333333,95.016,280.77333)" />
    <path
       id="path3"
       d="M -28.64426,0 V 206.2311 H 315.0696 V 0 Z"
       style="fill:none;stroke:#000000;stroke-width:0.3985;stroke-linecap:butt;stroke-linejoin:miter;stroke-miterlimit:10;stroke-dasharray:none;stroke-opacity:1"
       transform="matrix(1.3333333,0,0,-1.3333333,95.016,280.77333)" />
    <g
       id="g3"
       aria-label="0.1"
       transform="matrix(1.3333333,0,0,1.3333333,62.22,299.696)">
      <path
         id="path4"
         d="m 4.5810938,-3.1880156 c 0,-0.796875 -0.046875,-1.59375 -0.3984375,-2.3320313 -0.4570313,-0.9609375 -1.2773438,-1.1132812 -1.6875,-1.1132812 -0.5976563,0 -1.3359375,0.2578125 -1.73437505,1.1835937 -0.328125,0.6914063 -0.375,1.4648438 -0.375,2.2617188 0,0.75 0.046875,1.640625 0.4453125,2.40234373 0.43359375,0.80859375 1.16015625,1.0078125 1.65234375,1.0078125 0.5390625,0 1.2890625,-0.2109375 1.734375,-1.16015625 C 4.5342188,-1.6294219 4.5810938,-2.4028594 4.5810938,-3.1880156 Z M 2.4834375,-5.15625e-4 c -0.3867187,0 -0.984375,-0.246093745 -1.1601562,-1.207031275 -0.1054688,-0.5976562 -0.1054688,-1.5117187 -0.1054688,-2.0976562 0,-0.6445313 0,-1.3007813 0.082031,-1.8398438 0.1875,-1.1835937 0.9257812,-1.265625 1.1835937,-1.265625 0.328125,0 0.984375,0.1757813 1.171875,1.1601563 0.09375,0.5625 0.09375,1.3125 0.09375,1.9453125 0,0.75 0,1.4179687 -0.1054687,2.0625 C 3.49125,-0.30520312 2.92875,-5.15625e-4 2.4834375,-5.15625e-4 Z m 0,0"
         style="fill:#000000;fill-opacity:1;fill-rule:nonzero;stroke:none" />
      <path
         id="path5"
         d="m 6.8926172,-0.52785937 c 0,-0.29296875 -0.234375,-0.52734373 -0.5273438,-0.52734373 -0.28125,0 -0.5273437,0.23437498 -0.5273437,0.52734373 0,0.29296875 0.2460937,0.527343745 0.5273437,0.527343745 0.2929688,0 0.5273438,-0.234374995 0.5273438,-0.527343745 z m 0,0"
         style="fill:#000000;fill-opacity:1;fill-rule:nonzero;stroke:none" />
      <path
         id="path6"
         d="m 10.677773,-6.3755156 c 0,-0.234375 0,-0.2578125 -0.234375,-0.2578125 -0.6093746,0.6328125 -1.4882808,0.6328125 -1.8046871,0.6328125 v 0.3164062 c 0.1992188,0 0.7851563,0 1.3007813,-0.2578125 v 5.15625003 c 0,0.3515625 -0.035156,0.48046875 -0.9257813,0.48046875 H 8.6973047 V -5.15625e-4 C 9.0488672,-0.03567187 9.9043359,-0.03567187 10.302773,-0.03567187 c 0.398438,0 1.265625,0 1.617188,0.035156245 V -0.30520312 h -0.316406 c -0.902344,0 -0.925782,-0.1171875 -0.925782,-0.48046875 z m 0,0"
         style="fill:#000000;fill-opacity:1;fill-rule:nonzero;stroke:none" />
    </g>
    <g
       id="g6"
       aria-label="0.3"
       transform="matrix(1.3333333,0,0,1.3333333,190.16,299.696)">
      <path
         id="path7"
         d="m 4.5821484,-3.1880156 c 0,-0.796875 -0.046875,-1.59375 -0.3984375,-2.3320313 -0.4570312,-0.9609375 -1.2773437,-1.1132812 -1.6875,-1.1132812 -0.5976562,0 -1.3359375,0.2578125 -1.73437496,1.1835937 -0.328125,0.6914063 -0.375,1.4648438 -0.375,2.2617188 0,0.75 0.046875,1.640625 0.4453125,2.40234373 0.43359376,0.80859375 1.16015626,1.0078125 1.65234376,1.0078125 0.5390625,0 1.2890625,-0.2109375 1.734375,-1.16015625 C 4.5352734,-1.6294219 4.5821484,-2.4028594 4.5821484,-3.1880156 Z M 2.4844922,-5.15625e-4 c -0.3867188,0 -0.984375,-0.246093745 -1.1601563,-1.207031275 -0.1054687,-0.5976562 -0.1054687,-1.5117187 -0.1054687,-2.0976562 0,-0.6445313 0,-1.3007813 0.082031,-1.8398438 0.1875,-1.1835937 0.9257813,-1.265625 1.1835938,-1.265625 0.328125,0 0.984375,0.1757813 1.171875,1.1601563 0.09375,0.5625 0.09375,1.3125 0.09375,1.9453125 0,0.75 0,1.4179687 -0.1054688,2.0625 -0.1523437,0.93749998 -0.7148437,1.242187475 -1.160156,1.242187475 z m 0,0"
         style="fill:#000000;fill-opacity:1;fill-rule:nonzero;stroke:none" />
      <path
         id="path8"
         d="m 6.8907422,-0.52785937 c 0,-0.29296875 -0.234375,-0.52734373 -0.5273438,-0.52734373 -0.28125,0 -0.5273437,0.23437498 -0.5273437,0.52734373 0,0.29296875 0.2460937,0.527343745 0.5273437,0.527343745 0.2929688,0 0.5273438,-0.234374995 0.5273438,-0.527343745 z m 0,0"
         style="fill:#000000;fill-opacity:1;fill-rule:nonzero;stroke:none" />
      <path
         id="path9"
         d="m 10.643672,-3.5044219 c 0.808594,-0.2695312 1.394531,-0.9726562 1.394531,-1.7578125 0,-0.8203125 -0.878906,-1.3710937 -1.839844,-1.3710937 -1.0078121,0 -1.7578121,0.5976562 -1.7578121,1.3476562 0,0.3398438 0.2109375,0.5273438 0.5039062,0.5273438 0.3046875,0 0.5039063,-0.2226563 0.5039063,-0.515625 0,-0.4921875 -0.46875,-0.4921875 -0.609375,-0.4921875 0.3046875,-0.4921875 0.9609375,-0.6210938 1.3242186,-0.6210938 0.410156,0 0.949219,0.2226563 0.949219,1.1132813 0,0.1289062 -0.01172,0.703125 -0.269531,1.1367187 -0.304688,0.4804688 -0.644532,0.515625 -0.8906254,0.515625 -0.082031,0.011719 -0.3164062,0.035156 -0.3867187,0.035156 -0.082031,0.011719 -0.1523438,0.023437 -0.1523438,0.1171875 0,0.1171875 0.070312,0.1171875 0.234375,0.1171875 h 0.4453129 c 0.808593,0 1.183593,0.6679687 1.183593,1.6523437 0,1.34765628 -0.691406,1.64062503 -1.125,1.64062503 -0.4335934,0 -1.1718746,-0.17578125 -1.5234371,-0.76171875 0.3515625,0.0585938 0.65625,-0.1640625 0.65625,-0.53906248 0,-0.3632813 -0.2695313,-0.5625 -0.5625,-0.5625 -0.234375,0 -0.5507813,0.140625 -0.5507813,0.5742187 0,0.91406253 0.9257813,1.57031253 2.0039064,1.57031253 1.21875,0 2.121094,-0.9140625 2.121094,-1.92187503 0,-0.8203125 -0.621094,-1.59375 -1.652344,-1.8046872 z m 0,0"
         style="fill:#000000;fill-opacity:1;fill-rule:nonzero;stroke:none" />
    </g>
    <g
       id="g9"
       aria-label="0.5"
       transform="matrix(1.3333333,0,0,1.3333333,318.09867,299.696)">
      <path
         id="path10"
         d="m 4.5812734,-3.1880156 c 0,-0.796875 -0.046875,-1.59375 -0.3984375,-2.3320313 -0.4570312,-0.9609375 -1.2773437,-1.1132812 -1.6875,-1.1132812 -0.5976562,0 -1.3359375,0.2578125 -1.73437496,1.1835937 -0.328125,0.6914063 -0.375,1.4648438 -0.375,2.2617188 0,0.75 0.046875,1.640625 0.4453125,2.40234373 0.43359376,0.80859375 1.16015626,1.0078125 1.65234376,1.0078125 0.5390625,0 1.2890625,-0.2109375 1.734375,-1.16015625 C 4.5343984,-1.6294219 4.5812734,-2.4028594 4.5812734,-3.1880156 Z M 2.4836172,-5.15625e-4 c -0.3867188,0 -0.984375,-0.246093745 -1.1601563,-1.207031275 -0.1054687,-0.5976562 -0.1054687,-1.5117187 -0.1054687,-2.0976562 0,-0.6445313 0,-1.3007813 0.082031,-1.8398438 0.1875,-1.1835937 0.9257813,-1.265625 1.1835938,-1.265625 0.328125,0 0.984375,0.1757813 1.171875,1.1601563 0.09375,0.5625 0.09375,1.3125 0.09375,1.9453125 0,0.75 0,1.4179687 -0.1054688,2.0625 -0.1523437,0.93749998 -0.7148437,1.242187475 -1.160156,1.242187475 z m 0,0"
         style="fill:#000000;fill-opacity:1;fill-rule:nonzero;stroke:none" />
      <path
         id="path11"
         d="m 6.8898672,-0.52785937 c 0,-0.29296875 -0.234375,-0.52734373 -0.5273438,-0.52734373 -0.28125,0 -0.5273437,0.23437498 -0.5273437,0.52734373 0,0.29296875 0.2460937,0.527343745 0.5273437,0.527343745 0.2929688,0 0.5273438,-0.234374995 0.5273438,-0.527343745 z m 0,0"
         style="fill:#000000;fill-opacity:1;fill-rule:nonzero;stroke:none" />
      <path
         id="path12"
         d="m 12.224828,-2.0044219 c 0,-1.1835937 -0.820312,-2.1796875 -1.898437,-2.1796875 -0.4804691,0 -0.9023441,0.1640625 -1.2656254,0.5039063 v -1.9335938 c 0.1992188,0.058594 0.5273438,0.1289063 0.84375,0.1289063 1.2304684,0 1.9335934,-0.9140625 1.9335934,-1.0429688 0,-0.058594 -0.03516,-0.1054687 -0.105468,-0.1054687 -0.01172,0 -0.03516,0 -0.08203,0.023437 -0.199218,0.09375 -0.679687,0.2929687 -1.347656,0.2929687 -0.3984374,0 -0.8554686,-0.070312 -1.3242186,-0.28125 -0.082031,-0.023437 -0.1054688,-0.023437 -0.1289063,-0.023437 -0.09375,0 -0.09375,0.082031 -0.09375,0.234375 v 2.953125 c 0,0.1757813 0,0.2578125 0.140625,0.2578125 0.070312,0 0.082031,-0.035156 0.1289063,-0.09375 0.1054687,-0.1523437 0.4804687,-0.6914062 1.2773436,-0.6914062 0.527344,0 0.773438,0.4570312 0.855469,0.6328125 0.152344,0.375 0.175781,0.7617187 0.175781,1.2539062 0,0.3515625 0,0.9492188 -0.234375,1.37109378 -0.246094,0.38671875 -0.609375,0.64453125 -1.066406,0.64453125 -0.7265626,0 -1.3007814,-0.52734375 -1.4648439,-1.11328123 0.023437,0.011719 0.058594,0.011719 0.1640625,0.011719 0.328125,0 0.5039063,-0.2460937 0.5039063,-0.4804687 0,-0.2460938 -0.1757813,-0.4921875 -0.5039063,-0.4921875 -0.140625,0 -0.4804687,0.070312 -0.4804687,0.5273437 0,0.85546878 0.6796875,1.82812503 1.7929691,1.82812503 1.160156,0 2.179687,-0.9609375 2.179687,-2.22656253 z m 0,0"
         style="fill:#000000;fill-opacity:1;fill-rule:nonzero;stroke:none" />
    </g>
    <g
       id="g12"
       aria-label="0.7"
       transform="matrix(1.3333333,0,0,1.3333333,446.036,299.696)">
      <path
         id="path13"
         d="m 4.5813984,-3.1880156 c 0,-0.796875 -0.046875,-1.59375 -0.3984375,-2.3320313 -0.4570312,-0.9609375 -1.2773437,-1.1132812 -1.6875,-1.1132812 -0.5976562,0 -1.3359375,0.2578125 -1.73437496,1.1835937 -0.328125,0.6914063 -0.375,1.4648438 -0.375,2.2617188 0,0.75 0.046875,1.640625 0.4453125,2.40234373 0.43359376,0.80859375 1.16015626,1.0078125 1.65234376,1.0078125 0.5390625,0 1.2890625,-0.2109375 1.734375,-1.16015625 C 4.5345234,-1.6294219 4.5813984,-2.4028594 4.5813984,-3.1880156 Z M 2.4837422,-5.15625e-4 c -0.3867188,0 -0.984375,-0.246093745 -1.1601563,-1.207031275 -0.1054687,-0.5976562 -0.1054687,-1.5117187 -0.1054687,-2.0976562 0,-0.6445313 0,-1.3007813 0.082031,-1.8398438 0.1875,-1.1835937 0.9257813,-1.265625 1.1835938,-1.265625 0.328125,0 0.984375,0.1757813 1.171875,1.1601563 0.09375,0.5625 0.09375,1.3125 0.09375,1.9453125 0,0.75 0,1.4179687 -0.1054688,2.0625 -0.1523437,0.93749998 -0.7148437,1.242187475 -1.160156,1.242187475 z m 0,0"
         style="fill:#000000;fill-opacity:1;fill-rule:nonzero;stroke:none" />
      <path
         id="path14"
         d="m 6.8929219,-0.52785937 c 0,-0.29296875 -0.234375,-0.52734373 -0.5273438,-0.52734373 -0.28125,0 -0.5273437,0.23437498 -0.5273437,0.52734373 0,0.29296875 0.2460937,0.527343745 0.5273437,0.527343745 0.2929688,0 0.5273438,-0.234374995 0.5273438,-0.527343745 z m 0,0"
         style="fill:#000000;fill-opacity:1;fill-rule:nonzero;stroke:none" />
      <path
         id="path15"
         d="m 12.494484,-6.0708281 c 0.08203,-0.1171875 0.08203,-0.140625 0.08203,-0.3398438 h -2.414063 c -1.2187499,0 -1.2421874,-0.1289062 -1.2773436,-0.328125 H 8.6390156 l -0.328125,2.0507813 h 0.2460938 c 0.023437,-0.1523438 0.1171875,-0.7851563 0.2460937,-0.9023438 0.070312,-0.058594 0.84375,-0.058594 0.9726563,-0.058594 h 2.0624996 c -0.105468,0.1640625 -0.890625,1.2421875 -1.113281,1.5703125 -0.8906249,1.3476562 -1.2187499,2.7304687 -1.2187499,3.74999998 0,0.09375 0,0.55078125 0.4570313,0.55078125 0.4570316,0 0.4570316,-0.45703125 0.4570316,-0.55078125 v -0.50390625 c 0,-0.55078123 0.02344,-1.10156253 0.105468,-1.64062503 0.04687,-0.2226562 0.175782,-1.078125 0.621094,-1.6992187 z m 0,0"
         style="fill:#000000;fill-opacity:1;fill-rule:nonzero;stroke:none" />
    </g>
    <path
       id="path16"
       d="m 4.5812422,-3.1864844 c 0,-0.796875 -0.046875,-1.59375 -0.3984375,-2.3320312 -0.4570313,-0.9609375 -1.2773438,-1.1132813 -1.6875,-1.1132813 -0.5976563,0 -1.3359375,0.2578125 -1.73437501,1.1835938 -0.328125,0.6914062 -0.375,1.4648437 -0.375,2.2617187 0,0.75 0.046875,1.640625 0.4453125,2.40234378 0.43359371,0.80859375 1.16015621,1.0078125 1.65234371,1.0078125 0.5390625,0 1.2890625,-0.2109375 1.734375,-1.16015625 C 4.5343672,-1.6278906 4.5812422,-2.4013281 4.5812422,-3.1864844 Z M 2.4835859,0.00101563 c -0.3867187,0 -0.984375,-0.24609375 -1.1601562,-1.20703123 -0.1054688,-0.5976563 -0.1054688,-1.5117188 -0.1054688,-2.0976563 0,-0.6445312 0,-1.3007812 0.082031,-1.8398437 0.1875,-1.1835938 0.9257812,-1.265625 1.1835937,-1.265625 0.328125,0 0.984375,0.1757812 1.171875,1.1601562 0.09375,0.5625 0.09375,1.3125 0.09375,1.9453125 0,0.75 0,1.4179688 -0.1054687,2.0625 -0.1523438,0.93750003 -0.7148438,1.24218753 -1.160156,1.24218753 z m 0,0"
       style="fill:#000000;fill-opacity:1;fill-rule:nonzero;stroke:none"
       aria-label="0"
       transform="matrix(1.3333333,0,0,1.3333333,45.489333,285.05333)" />
    <path
       id="path17"
       d="m 2.9288984,-6.3758984 c 0,-0.234375 0,-0.2578125 -0.234375,-0.2578125 -0.609375,0.6328125 -1.4882812,0.6328125 -1.80468746,0.6328125 v 0.3164062 c 0.19921876,0 0.78515626,0 1.30078126,-0.2578125 v 5.15625001 c 0,0.3515625 -0.035156,0.48046875 -0.9257813,0.48046875 H 0.94842969 V -8.984375e-4 C 1.2999922,-0.03605469 2.1554609,-0.03605469 2.5538984,-0.03605469 c 0.3984375,0 1.265625,0 1.6171875,0.0351562525 V -0.30558594 H 3.8546797 c -0.9023438,0 -0.9257813,-0.1171875 -0.9257813,-0.48046875 z m 0,0"
       style="fill:#000000;fill-opacity:1;fill-rule:nonzero;stroke:none"
       aria-label="1"
       transform="matrix(1.3333333,0,0,1.3333333,45.489333,221.10667)" />
    <path
       id="path18"
       d="M 1.2648359,-0.76160156 2.3195234,-1.7928516 c 1.5585938,-1.3710937 2.15625,-1.9101562 2.15625,-2.90625 0,-1.1367187 -0.9023437,-1.9335937 -2.1210937,-1.9335937 -1.125,0 -1.85156251,0.9140625 -1.85156251,1.8046875 0,0.5507812 0.4921875,0.5507812 0.52734371,0.5507812 0.1640625,0 0.515625,-0.1171875 0.515625,-0.5273437 0,-0.2578125 -0.1875,-0.515625 -0.5273437,-0.515625 -0.0820313,0 -0.10546876,0 -0.12890626,0.011719 0.22265626,-0.6445312 0.76171876,-1.0195312 1.33593746,-1.0195312 0.9140625,0 1.3359375,0.8085937 1.3359375,1.6289062 0,0.796875 -0.4921875,1.5820313 -1.0429687,2.203125 L 0.60858594,-0.36316406 C 0.50311719,-0.25769531 0.50311719,-0.23425781 0.50311719,1.171875e-4 H 4.1945234 L 4.4757734,-1.7342578 H 4.2179609 c -0.046875,0.3046875 -0.1171875,0.73828124 -0.2109375,0.89062499 -0.070312,0.0820313 -0.7265625,0.0820313 -0.9492187,0.0820313 z m 0,0"
       style="fill:#000000;fill-opacity:1;fill-rule:nonzero;stroke:none"
       aria-label="2"
       transform="matrix(1.3333333,0,0,1.3333333,45.489333,157.16)" />
    <path
       id="path19"
       d="m 2.8937422,-3.5027734 c 0.8085937,-0.2695313 1.3945312,-0.9726563 1.3945312,-1.7578125 0,-0.8203125 -0.8789062,-1.3710938 -1.8398437,-1.3710938 -1.0078125,0 -1.75781251,0.5976563 -1.75781251,1.3476563 0,0.3398437 0.2109375,0.5273437 0.50390621,0.5273437 0.3046875,0 0.5039063,-0.2226562 0.5039063,-0.515625 0,-0.4921875 -0.46875,-0.4921875 -0.609375,-0.4921875 0.3046875,-0.4921875 0.9609375,-0.6210937 1.3242187,-0.6210937 0.4101563,0 0.9492188,0.2226562 0.9492188,1.1132812 0,0.1289063 -0.011719,0.703125 -0.2695313,1.1367188 -0.3046875,0.4804687 -0.6445312,0.515625 -0.890625,0.515625 -0.082031,0.011719 -0.3164062,0.035156 -0.3867187,0.035156 -0.082031,0.011719 -0.1523438,0.023437 -0.1523438,0.1171875 0,0.1171875 0.070312,0.1171875 0.234375,0.1171875 h 0.4453125 c 0.8085938,0 1.1835938,0.6679688 1.1835938,1.6523438 0,1.34765621 -0.6914063,1.64062496 -1.125,1.64062496 -0.4335938,0 -1.171875,-0.17578125 -1.52343751,-0.76171875 0.35156251,0.0585938 0.65625001,-0.1640625 0.65625001,-0.53906251 0,-0.3632812 -0.2695313,-0.5625 -0.56250001,-0.5625 -0.234375,0 -0.55078125,0.140625 -0.55078125,0.5742188 0,0.91406246 0.92578126,1.57031246 2.00390626,1.57031246 1.21875,0 2.1210937,-0.9140625 2.1210937,-1.92187496 0,-0.8203125 -0.6210937,-1.59375 -1.6523437,-1.8046873 z m 0,0"
       style="fill:#000000;fill-opacity:1;fill-rule:nonzero;stroke:none"
       aria-label="3"
       transform="matrix(1.3333333,0,0,1.3333333,45.489333,93.213333)" />
    <path
       id="path20"
       d="m 2.9288984,-1.6414062 v 0.86718745 c 0,0.3515625 -0.023437,0.46875 -0.7617187,0.46875 H 1.9562422 v 0.3046875 c 0.4101562,-0.03515625 0.9375,-0.03515625 1.3476562,-0.03515625 0.421875,0 0.9492188,0 1.359375,0.03515625 v -0.3046875 H 4.4523359 c -0.7382812,0 -0.7617187,-0.1171875 -0.7617187,-0.46875 V -1.6414062 H 4.6867109 V -1.9578125 H 3.6906172 V -6.48125 c 0,-0.1992187 0,-0.2578125 -0.1523438,-0.2578125 -0.09375,0 -0.1171875,0 -0.1992187,0.1171875 l -3.05859376,4.6640625 v 0.3164063 z m 0.058594,-0.3164063 H 0.56171094 L 2.9874922,-5.6726562 Z m 0,0"
       style="fill:#000000;fill-opacity:1;fill-rule:nonzero;stroke:none"
       aria-label="4"
       transform="matrix(1.3333333,0,0,1.3333333,45.489333,29.266667)" />
    <path
       id="path21"
       d="M 0,0 H 28.64249 V 1.5027 H 0 Z M 28.64249,0 H 57.28498 V 13.99081 H 28.64249 Z M 57.28497,0 H 85.92746 V 53.89053 H 57.28497 Z m 28.64249,0 h 28.64249 V 121.35742 H 85.92746 Z m 28.64249,0 h 28.64249 v 193.69519 h -28.64249 z m 28.64248,0 h 28.64249 v 197.78877 h -28.64249 z m 28.64249,0 h 28.64249 v 142.91367 h -28.64249 z m 28.64248,0 h 28.64249 V 63.16597 H 200.4974 Z m 28.6425,0 h 28.64249 V 14.09445 H 229.1399 Z m 28.6425,0 h 28.64294 V 0.98453 H 257.7824 Z"
       style="fill:#ff9f40;fill-opacity:1;fill-rule:nonzero;stroke:#804000;stroke-width:0.3985;stroke-linecap:butt;stroke-linejoin:miter;stroke-miterlimit:10;stroke-dasharray:none;stroke-opacity:1"
       transform="matrix(1.3333333,0,0,-1.3333333,95.016,280.77333)"
       clip-path="url(#clipPath22)" />
    <path
       id="path23"
       d="m 3.9597969,-6.9369375 c -0.046875,-0.1289062 -0.070312,-0.1992187 -0.2226563,-0.1992187 -0.1640625,0 -0.1875,0.058594 -0.2460937,0.1992187 l -2.0625,5.96484375 C 1.2527656,-0.4681875 0.85432813,-0.31584375 0.31526563,-0.304125 V 5.625e-4 c 0.234375,-0.01171875 0.65625,-0.03515625 1.01953127,-0.03515625 0.3046875,0 0.8203125,0.0234375 1.1484375,0.03515625 V -0.304125 c -0.5039063,0 -0.75,-0.2578125 -0.75,-0.515625 0,-0.0234375 0.011719,-0.12890625 0.023437,-0.140625 l 0.4570312,-1.3125 h 2.4609375 l 0.5273438,1.5234375 c 0.011719,0.046875 0.023437,0.10546875 0.023437,0.140625 0,0.3046875 -0.5507813,0.3046875 -0.8203125,0.3046875 V 5.625e-4 c 0.3515625,-0.03515625 1.0546875,-0.03515625 1.4296875,-0.03515625 0.4335937,0 0.890625,0.01171875 1.3007812,0.03515625 V -0.304125 H 6.9597969 c -0.5976563,0 -0.7382813,-0.0703125 -0.84375,-0.3984375 z m -0.5273438,1.125 1.125,3.234375 H 2.3191719 Z m 5.2001953,3.6445313 c 0,-1.6289063 0.8203125,-2.0507813 1.3476563,-2.0507813 0.09375,0 0.7148433,0.011719 1.0664063,0.375 -0.410156,0.023437 -0.46875,0.328125 -0.46875,0.4570313 0,0.2578125 0.1875,0.4570312 0.457031,0.4570312 0.257813,0 0.457031,-0.1640625 0.457031,-0.46875 0,-0.6796875 -0.75,-1.0664062 -1.5234371,-1.0664062 -1.2421875,0 -2.15625,1.078125 -2.15625,2.3085937 0,1.27734375 0.984375,2.26171875 2.1445313,2.26171875 1.3359378,0 1.6523438,-1.19531245 1.6523438,-1.28906245 0,-0.1054688 -0.105469,-0.1054688 -0.128906,-0.1054688 -0.09375,0 -0.117188,0.046875 -0.128907,0.1054688 -0.292968,0.9257812 -0.9375,1.0429687 -1.3125,1.0429687 -0.5273433,0 -1.4062496,-0.421875 -1.4062496,-2.0273437 z m 4.4267576,0 c 0,-1.6289063 0.820313,-2.0507813 1.347657,-2.0507813 0.09375,0 0.714843,0.011719 1.066406,0.375 -0.410156,0.023437 -0.46875,0.328125 -0.46875,0.4570313 0,0.2578125 0.1875,0.4570312 0.457031,0.4570312 0.257813,0 0.457031,-0.1640625 0.457031,-0.46875 0,-0.6796875 -0.75,-1.0664062 -1.523437,-1.0664062 -1.242188,0 -2.15625,1.078125 -2.15625,2.3085937 0,1.27734375 0.984375,2.26171875 2.144531,2.26171875 1.335938,0 1.652344,-1.19531245 1.652344,-1.28906245 0,-0.1054688 -0.105469,-0.1054688 -0.128906,-0.1054688 -0.09375,0 -0.117188,0.046875 -0.128907,0.1054688 -0.292968,0.9257812 -0.9375,1.0429687 -1.3125,1.0429687 -0.527343,0 -1.40625,-0.421875 -1.40625,-2.0273437 z m 7.157227,1.38281245 v 0.890625 L 21.658039,5.625e-4 V -0.304125 c -0.703125,0 -0.785156,-0.0703125 -0.785156,-0.5625 V -4.4056875 L 19.419758,-4.2885 v 0.3046875 c 0.691406,0 0.773437,0.070312 0.773437,0.5625 v 1.7695313 c 0,0.86718745 -0.480468,1.54687495 -1.207031,1.54687495 -0.832031,0 -0.878906,-0.46875 -0.878906,-0.99609375 V -4.4056875 L 16.642414,-4.2885 v 0.3046875 c 0.785156,0 0.785156,0.035156 0.785156,0.9140625 v 1.5 c 0,0.7734375 0,1.67578125 1.511719,1.67578125 0.550781,0 0.996094,-0.26953125 1.277344,-0.890625 z M 23.52718,-3.304125 V -4.4056875 L 22.144367,-4.2885 v 0.3046875 c 0.691406,0 0.773438,0.070312 0.773438,0.5625 v 2.66015625 c 0,0.45703125 -0.105469,0.45703125 -0.773438,0.45703125 V 5.625e-4 c 0.386719,-0.01171875 0.855469,-0.03515625 1.136719,-0.03515625 0.398437,0 0.867187,0 1.265625,0.03515625 V -0.304125 h -0.210938 c -0.738281,0 -0.761718,-0.1171875 -0.761718,-0.46875 v -1.5351562 c 0,-0.984375 0.421875,-1.875 1.183593,-1.875 0.05859,0 0.08203,0 0.105469,0.011719 -0.03516,0.011719 -0.234375,0.1289063 -0.234375,0.3867188 0,0.28125 0.210938,0.4335937 0.433594,0.4335937 0.175781,0 0.421875,-0.1289062 0.421875,-0.4453125 0,-0.3164062 -0.304688,-0.609375 -0.726563,-0.609375 -0.738281,0 -1.089843,0.6679688 -1.230468,1.1015622 z m 5.554687,2.54296875 c 0.03516,0.3984375 0.304688,0.8203125 0.773438,0.8203125 0.210937,0 0.820312,-0.140625 0.820312,-0.94921875 v -0.5507812 h -0.246094 v 0.5507812 c 0,0.5859375 -0.246093,0.64453125 -0.363281,0.64453125 -0.328125,0 -0.363281,-0.45703125 -0.363281,-0.50390625 V -2.741625 c 0,-0.4101562 0,-0.8085937 -0.363281,-1.171875 -0.386719,-0.3867187 -0.878907,-0.5507812 -1.359375,-0.5507812 -0.820313,0 -1.511719,0.46875 -1.511719,1.125 0,0.3046875 0.199219,0.46875 0.457031,0.46875 0.28125,0 0.46875,-0.1992188 0.46875,-0.4570313 0,-0.1171875 -0.05859,-0.4453125 -0.515625,-0.4570312 0.269531,-0.3515625 0.761719,-0.4570313 1.078125,-0.4570313 0.492188,0 1.054688,0.3867188 1.054688,1.2773438 V -2.601 c -0.503907,0.035156 -1.207032,0.058594 -1.828125,0.3632813 -0.75,0.3398437 -0.996094,0.8554687 -0.996094,1.28906245 0,0.80859375 0.960937,1.0546875 1.59375,1.0546875 0.65625,0 1.113281,-0.3984375 1.300781,-0.8671875 z m -0.07031,-1.62890625 v 0.9960938 c 0,0.9492187 -0.714844,1.28906245 -1.160157,1.28906245 -0.492187,0 -0.902343,-0.3515625 -0.902343,-0.85546875 0,-0.5390625 0.421875,-1.3710937 2.0625,-1.4296875 z m 2.894531,0.2226563 c 0,-1.6289063 0.820312,-2.0507813 1.347656,-2.0507813 0.09375,0 0.714844,0.011719 1.066406,0.375 -0.410156,0.023437 -0.46875,0.328125 -0.46875,0.4570313 0,0.2578125 0.1875,0.4570312 0.457032,0.4570312 0.257812,0 0.457031,-0.1640625 0.457031,-0.46875 0,-0.6796875 -0.75,-1.0664062 -1.523438,-1.0664062 -1.242187,0 -2.15625,1.078125 -2.15625,2.3085937 0,1.27734375 0.984375,2.26171875 2.144532,2.26171875 1.335937,0 1.652343,-1.19531245 1.652343,-1.28906245 0,-0.1054688 -0.105468,-0.1054688 -0.128906,-0.1054688 -0.09375,0 -0.117187,0.046875 -0.128906,0.1054688 -0.292969,0.9257812 -0.9375,1.0429687 -1.3125,1.0429687 -0.527344,0 -1.40625,-0.421875 -1.40625,-2.0273437 z M 39.309406,-3.351 c 0.257813,-0.6210937 0.761719,-0.6328125 0.925782,-0.6328125 V -4.2885 c -0.234375,0.011719 -0.515625,0.023437 -0.75,0.023437 -0.175782,0 -0.644532,-0.023437 -0.867188,-0.023437 v 0.3046875 c 0.304688,0.011719 0.46875,0.1757813 0.46875,0.4335938 0,0.09375 -0.01172,0.1171875 -0.05859,0.234375 l -1.007812,2.4492187 -1.101563,-2.6835937 c -0.04687,-0.09375 -0.05859,-0.140625 -0.05859,-0.1757813 0,-0.2578125 0.363281,-0.2578125 0.550781,-0.2578125 V -4.2885 c -0.257813,0 -0.914063,0.023437 -1.078125,0.023437 -0.269531,0 -0.667969,-0.011719 -0.972656,-0.023437 v 0.3046875 c 0.480468,0 0.667968,0 0.808593,0.3515625 l 1.5,3.6328125 c -0.0586,0.12890625 -0.199225,0.45703125 -0.257819,0.5859375 -0.210938,0.5507813 -0.492188,1.2421875 -1.136719,1.2421875 -0.04687,0 -0.269531,0 -0.46875,-0.1875 0.316406,-0.035156 0.398438,-0.2578125 0.398438,-0.4101562 0,-0.2695313 -0.199219,-0.42187505 -0.421875,-0.42187505 -0.199219,0 -0.421875,0.12890625 -0.421875,0.42187505 0,0.4570312 0.421875,0.8085937 0.914062,0.8085937 0.632813,0 1.042969,-0.5625 1.277344,-1.13671875 z m 0,0"
       style="fill:#000000;fill-opacity:1;fill-rule:nonzero;stroke:none"
       aria-label="Accuracy"
       transform="matrix(1.3333333,0,0,1.3333333,259.00933,314.468)" />
    <path
       id="path24"
       d="m 2.7071797,-4.4538672 c 0,-0.2578125 -0.1640625,-0.5273437 -0.5273438,-0.5273437 -0.1992187,0 -0.3398437,0.09375 -0.3984375,0.1640625 -0.011719,0.011719 -0.023437,0.023437 -0.023437,0.023437 -0.023437,0 -0.023437,-0.140625 -0.023437,-0.1757813 0,-0.3164062 0.070312,-1.0429687 0.6914063,-1.6523437 0.1289062,-0.1171875 0.1289062,-0.140625 0.1289062,-0.1757813 0,-0.070312 -0.058594,-0.1054687 -0.1054687,-0.1054687 -0.1054688,0 -0.9375,0.7617187 -0.9375,1.9335937 0,0.5976563 0.2460937,1.0429688 0.6679687,1.0429688 0.3515625,0 0.5273438,-0.2695313 0.5273438,-0.5273438 z m 1.9335937,0 c 0,-0.2578125 -0.1640625,-0.5273437 -0.5273437,-0.5273437 -0.1992188,0 -0.3398438,0.09375 -0.3984375,0.1640625 -0.011719,0.011719 -0.023437,0.023437 -0.023437,0.023437 -0.023437,0 -0.023437,-0.140625 -0.023437,-0.1757813 0,-0.3164062 0.070312,-1.0429687 0.6914062,-1.6523437 0.1289063,-0.1171875 0.1289063,-0.140625 0.1289063,-0.1757813 0,-0.070312 -0.058594,-0.1054687 -0.1054688,-0.1054687 -0.1054687,0 -0.9375,0.7617187 -0.9375,1.9335937 0,0.5976563 0.2460938,1.0429688 0.6679688,1.0429688 0.3515625,0 0.5273437,-0.2695313 0.5273437,-0.5273438 z m 2.6484375,-2.2265625 c -0.082031,-0.1171875 -0.09375,-0.1289062 -0.28125,-0.1289062 H 5.3087422 v 0.3164062 h 0.2929687 c 0.140625,0 0.3398438,0.011719 0.4921875,0.011719 0.234375,0.035156 0.2460938,0.046875 0.2460938,0.234375 v 5.203125 c 0,0.26953121 0,0.73828121 -1.03125,0.73828121 V -7.421875e-4 C 5.6603047,-0.01246094 6.1407734,-0.03589844 6.4806172,-0.03589844 c 0.328125,0 0.8085937,0.0234375 1.1601562,0.0351562525 V -0.30542969 c -1.03125,0 -1.03125,-0.46875 -1.03125,-0.73828121 v -5.1796875 c 0.058594,0.046875 0.070312,0.058594 0.1054688,0.1171875 l 4.0664058,5.97656246 c 0.08203,0.1171875 0.09375,0.1289062525 0.164063,0.1289062525 0.140625,0 0.140625,-0.0703125025 0.140625,-0.2578125025 V -5.7546484 c 0,-0.2695313 0,-0.7382813 1.03125,-0.7382813 v -0.3164062 c -0.351563,0.011719 -0.84375,0.035156 -1.171875,0.035156 -0.328125,0 -0.820313,-0.023437 -1.1601563,-0.035156 v 0.3164062 c 1.0195313,0 1.0195313,0.46875 1.0195313,0.7382813 v 4.2539062 z m 9.8525391,4.546875 c 0,-1.2773437 -0.996094,-2.3320312 -2.191406,-2.3320312 -1.253906,0 -2.214844,1.0898437 -2.214844,2.3320312 0,1.28906251 1.03125,2.23828126 2.203125,2.23828126 1.207031,0 2.203125,-0.97265625 2.203125,-2.23828126 z m -2.191406,1.99218751 c -0.433594,0 -0.867188,-0.2109375 -1.136719,-0.66796875 -0.257812,-0.43359376 -0.257812,-1.04296876 -0.257812,-1.40624996 0,-0.3867188 0,-0.9257813 0.246093,-1.359375 0.269532,-0.4570313 0.738282,-0.6679688 1.136719,-0.6679688 0.433594,0 0.867188,0.2226563 1.125,0.6445313 0.257813,0.4335937 0.257813,1.0078125 0.257813,1.3828125 0,0.3632812 0,0.9023437 -0.222657,1.33593746 -0.222656,0.4453125 -0.65625,0.73828125 -1.148437,0.73828125 z m 4.148437,-3.16406251 v -1.1015625 l -1.382812,0.1171875 v 0.3046875 c 0.691406,0 0.773437,0.070312 0.773437,0.5625 v 2.66015626 c 0,0.45703125 -0.105468,0.45703125 -0.773437,0.45703125 V -7.421875e-4 C 18.102688,-0.01246094 18.571438,-0.03589844 18.852688,-0.03589844 c 0.398437,0 0.867187,0 1.265625,0.0351562525 V -0.30542969 h -0.210938 c -0.738281,0 -0.761719,-0.1171875 -0.761719,-0.46875 V -2.3093359 c 0,-0.984375 0.421875,-1.875 1.183594,-1.875 0.05859,0 0.08203,0 0.105469,0.011719 -0.03516,0.011719 -0.234375,0.1289063 -0.234375,0.3867188 0,0.28125 0.210937,0.4335937 0.433594,0.4335937 0.175781,0 0.421875,-0.1289062 0.421875,-0.4453125 0,-0.3164062 -0.304688,-0.609375 -0.726563,-0.609375 -0.738281,0 -1.089844,0.6679688 -1.230469,1.1015622 z m 3.339844,-0.1171875 v 2.66015626 c 0,0.45703125 -0.117187,0.45703125 -0.785156,0.45703125 v 0.3046875025 c 0.351562,-0.0117187525 0.855469,-0.0351562525 1.125,-0.0351562525 0.257812,0 0.785156,0.0234375 1.113281,0.0351562525 V -0.30542969 c -0.65625,0 -0.773437,0 -0.773437,-0.45703125 V -2.5905859 c 0,-1.03125 0.714843,-1.59375 1.347656,-1.59375 0.621094,0 0.738281,0.5390625 0.738281,1.1015625 v 2.32031246 c 0,0.45703125 -0.117187,0.45703125 -0.773437,0.45703125 v 0.3046875025 c 0.339843,-0.0117187525 0.855468,-0.0351562525 1.125,-0.0351562525 0.257812,0 0.773437,0.0234375 1.113281,0.0351562525 V -0.30542969 c -0.667969,0 -0.785156,0 -0.785156,-0.45703125 V -2.5905859 c 0,-1.03125 0.714843,-1.59375 1.347656,-1.59375 0.632812,0 0.738281,0.5390625 0.738281,1.1015625 v 2.32031246 c 0,0.45703125 -0.105469,0.45703125 -0.773437,0.45703125 V -7.421875e-4 C 27.548,-0.01246094 28.051906,-0.03589844 28.321438,-0.03589844 c 0.257812,0 0.773437,0.0234375 1.113281,0.0351562525 V -0.30542969 c -0.515625,0 -0.761719,0 -0.773438,-0.3046875 V -2.5085547 c 0,-0.8554687 0,-1.171875 -0.316406,-1.5234375 -0.128906,-0.1757812 -0.46875,-0.375 -1.042969,-0.375 -0.832031,0 -1.277343,0.5976563 -1.441406,0.984375 -0.140625,-0.8671875 -0.878906,-0.984375 -1.324219,-0.984375 -0.726562,0 -1.195312,0.4335938 -1.476562,1.0546875 v -1.0546875 l -1.40625,0.1171875 v 0.3046875 c 0.703125,0 0.785156,0.070312 0.785156,0.5625 z m 10.517578,2.66015626 c 0.03516,0.3984375 0.304688,0.8203125 0.773438,0.8203125 0.210937,0 0.820312,-0.140625 0.820312,-0.94921875 V -1.4421484 h -0.246094 v 0.55078121 c 0,0.5859375 -0.246093,0.64453125 -0.363281,0.64453125 -0.328125,0 -0.363281,-0.45703125 -0.363281,-0.50390625 V -2.7429297 c 0,-0.4101562 0,-0.8085937 -0.363281,-1.171875 -0.386719,-0.3867187 -0.878907,-0.5507812 -1.359375,-0.5507812 -0.820313,0 -1.511719,0.46875 -1.511719,1.125 0,0.3046875 0.199219,0.46875 0.457031,0.46875 0.28125,0 0.46875,-0.1992188 0.46875,-0.4570313 0,-0.1171875 -0.05859,-0.4453125 -0.515625,-0.4570312 0.269531,-0.3515625 0.761719,-0.4570313 1.078125,-0.4570313 0.492188,0 1.054688,0.3867188 1.054688,1.2773438 v 0.3632812 c -0.503907,0.035156 -1.207032,0.058594 -1.828125,0.3632813 -0.75,0.3398437 -0.996094,0.8554687 -0.996094,1.28906246 0,0.80859375 0.960937,1.0546875 1.59375,1.0546875 0.65625,0 1.113281,-0.3984375 1.300781,-0.8671875 z m -0.07031,-1.62890626 v 0.9960938 c 0,0.94921871 -0.714844,1.28906246 -1.160157,1.28906246 -0.492187,0 -0.902343,-0.3515625 -0.902343,-0.85546875 0,-0.53906251 0.421875,-1.37109371 2.0625,-1.42968751 z m 3.492187,-4.5234375 -1.429687,0.1054688 v 0.3164062 c 0.703125,0 0.773437,0.070312 0.773437,0.5507813 v 5.17968746 c 0,0.45703125 -0.105469,0.45703125 -0.773437,0.45703125 v 0.3046875025 c 0.328123,-0.0117187525 0.855466,-0.0351562525 1.10156,-0.0351562525 0.257813,0 0.738281,0.0234375 1.113281,0.0351562525 V -0.30542969 c -0.667968,0 -0.785156,0 -0.785156,-0.45703125 z m 2.768555,2.5078125 -1.394531,0.1171875 v 0.3046875 c 0.65625,0 0.738281,0.058594 0.738281,0.5507813 v 2.67187496 c 0,0.45703125 -0.105469,0.45703125 -0.773438,0.45703125 V -7.421875e-4 C 38.033352,-0.01246094 38.572414,-0.03589844 38.818508,-0.03589844 c 0.339844,0 0.691406,0.0234375 1.03125,0.0351562525 V -0.30542969 c -0.65625,0 -0.703125,-0.0585938 -0.703125,-0.4453125 z m 0.04687,-1.734375 c 0,-0.3164062 -0.246094,-0.5273437 -0.527344,-0.5273437 -0.316406,0 -0.527344,0.2695312 -0.527344,0.5273437 0,0.2695313 0.210938,0.5273438 0.527344,0.5273438 0.28125,0 0.527344,-0.1992188 0.527344,-0.5273438 z m 3.035156,4.2070313 c 0.222656,0.035156 1.03125,0.1992187 1.03125,0.9140625 0,0.51562496 -0.351562,0.91406246 -1.125,0.91406246 -0.832031,0 -1.195312,-0.57421875 -1.382812,-1.41796876 -0.03516,-0.1289062 -0.03516,-0.1757812 -0.140625,-0.1757812 -0.128907,0 -0.128907,0.070312 -0.128907,0.2578125 v 1.31249996 c 0,0.1640625 0,0.234375 0.105469,0.234375 0.05859,0 0.07031,0 0.257813,-0.19921875 0.01172,-0.01171875 0.01172,-0.03515625 0.199218,-0.22265625 0.433594,0.421875 0.878907,0.421875 1.089844,0.421875 1.148438,0 1.605469,-0.66796875 1.605469,-1.38281246 0,-0.5273438 -0.292969,-0.8203125 -0.421875,-0.9492188 -0.328125,-0.3164062 -0.714844,-0.3984375 -1.136719,-0.46875 -0.550781,-0.1171875 -1.21875,-0.2460937 -1.21875,-0.8203125 0,-0.3515625 0.257813,-0.7617187 1.113281,-0.7617187 1.101563,0 1.148438,0.9023437 1.171875,1.2070312 0,0.09375 0.09375,0.09375 0.117188,0.09375 0.128906,0 0.128906,-0.046875 0.128906,-0.2460937 v -0.9960938 c 0,-0.1757812 0,-0.2460937 -0.117187,-0.2460937 -0.04687,0 -0.07031,0 -0.199219,0.1171875 -0.02344,0.046875 -0.128906,0.1289062 -0.164063,0.1640625 -0.375,-0.28125 -0.785156,-0.28125 -0.9375,-0.28125 -1.21875,0 -1.59375,0.6679687 -1.59375,1.2304687 0,0.3398438 0.164063,0.6210938 0.433594,0.84375 0.316406,0.2578125 0.597656,0.3164063 1.3125,0.4570313 z m 2.967774,-0.5742188 c 0.05859,-1.4882812 0.902343,-1.734375 1.242187,-1.734375 1.019531,0 1.125,1.3476563 1.125,1.734375 z m -0.01172,0.2109375 h 2.789062 c 0.210938,0 0.246094,0 0.246094,-0.2109375 0,-0.984375 -0.539062,-1.9570312 -1.78125,-1.9570312 -1.160156,0 -2.074219,1.03125 -2.074219,2.2734375 0,1.33593746 1.042969,2.29687496 2.191407,2.29687496 1.21875,0 1.664062,-1.1015625 1.664062,-1.28906246 0,-0.1054688 -0.08203,-0.1171875 -0.128906,-0.1171875 -0.09375,0 -0.117188,0.058594 -0.128906,0.140625 -0.351563,1.01953121 -1.253907,1.01953121 -1.347657,1.01953121 -0.503906,0 -0.902343,-0.29296875 -1.125,-0.66796875 C 45.184719,-1.2898047 45.184719,-1.9460547 45.184719,-2.2976172 Z M 52.298,-0.55152344 v 0.65625 L 53.762844,-7.421875e-4 V -0.30542969 c -0.703125,0 -0.773438,-0.0703125 -0.773438,-0.5625 V -6.9148047 L 51.548,-6.8093359 v 0.3164062 c 0.703125,0 0.785156,0.070312 0.785156,0.5507813 v 2.15625 c -0.292968,-0.3632813 -0.726562,-0.6210938 -1.265625,-0.6210938 -1.171875,0 -2.214843,0.984375 -2.214843,2.2617188 0,1.26562496 0.972656,2.24999996 2.109375,2.24999996 0.644531,0 1.089843,-0.33984375 1.335937,-0.65625 z m 0,-2.67187496 v 2.0507812 c 0,0.17578126 0,0.19921876 -0.105469,0.36328126 -0.304687,0.48046875 -0.75,0.703125 -1.183593,0.703125 -0.445313,0 -0.796875,-0.2578125 -1.042969,-0.64453125 C 49.708156,-1.1608984 49.673,-1.7233984 49.673,-2.1335547 c 0,-0.3632812 0.02344,-0.9609375 0.316406,-1.4179687 0.210938,-0.3046875 0.585938,-0.6328125 1.125,-0.6328125 0.351563,0 0.761719,0.1523437 1.078125,0.5976562 0.105469,0.1640625 0.105469,0.1875 0.105469,0.3632813 z m 3.272461,-2.6484375 c 0,-0.5976563 -0.234375,-1.0429688 -0.667969,-1.0429688 -0.351562,0 -0.527344,0.2695313 -0.527344,0.5273438 0,0.2578125 0.175782,0.5273437 0.527344,0.5273437 0.199219,0 0.339844,-0.09375 0.398438,-0.1523437 0.01172,-0.023437 0.02344,-0.035156 0.03516,-0.035156 0.01172,0 0.01172,0.140625 0.01172,0.1757813 0,0.328125 -0.07031,1.0429687 -0.691407,1.6523437 -0.117187,0.1289063 -0.117187,0.140625 -0.117187,0.1757813 0,0.070312 0.04687,0.1054687 0.09375,0.1054687 0.117187,0 0.9375,-0.75 0.9375,-1.9335937 z m 1.933594,0 c 0,-0.5976563 -0.234375,-1.0429688 -0.667969,-1.0429688 -0.351563,0 -0.527344,0.2695313 -0.527344,0.5273438 0,0.2578125 0.164063,0.5273437 0.527344,0.5273437 0.199219,0 0.339844,-0.09375 0.398437,-0.1523437 0.01172,-0.023437 0.02344,-0.035156 0.03516,-0.035156 0.01172,0 0.01172,0.140625 0.01172,0.1757813 0,0.328125 -0.07031,1.0429687 -0.691406,1.6523437 -0.117187,0.1289063 -0.117187,0.140625 -0.117187,0.1757813 0,0.070312 0.04687,0.1054687 0.09375,0.1054687 0.105468,0 0.9375,-0.75 0.9375,-1.9335937 z m 6.588867,1.5820312 v -1.1601562 c 0,-0.8789063 0.480469,-1.359375 0.914062,-1.359375 0.03516,0 0.175782,0 0.328125,0.070312 -0.117187,0.046875 -0.292968,0.1757812 -0.292968,0.421875 0,0.234375 0.152343,0.4335937 0.421875,0.4335937 0.292968,0 0.433593,-0.1992187 0.433593,-0.4453125 0,-0.3632812 -0.363281,-0.6914062 -0.890625,-0.6914062 -0.703125,0 -1.546875,0.5273437 -1.546875,1.5820312 v 1.1484375 h -0.785156 v 0.3046875 h 0.785156 v 3.22265626 c 0,0.45703125 -0.105468,0.45703125 -0.773437,0.45703125 V -7.421875e-4 C 63.073391,-0.01246094 63.542141,-0.03589844 63.823391,-0.03589844 c 0.398437,0 0.867187,0 1.265625,0.0351562525 V -0.30542969 h -0.210938 c -0.738281,0 -0.761719,-0.1171875 -0.761719,-0.46875 V -3.9851172 h 1.136719 v -0.3046875 z m 2.961914,0.984375 v -1.1015625 l -1.382813,0.1171875 v 0.3046875 c 0.691407,0 0.773438,0.070312 0.773438,0.5625 v 2.66015626 c 0,0.45703125 -0.105469,0.45703125 -0.773438,0.45703125 V -7.421875e-4 C 66.058742,-0.01246094 66.527492,-0.03589844 66.808742,-0.03589844 c 0.398438,0 0.867188,0 1.265625,0.0351562525 V -0.30542969 H 67.86343 c -0.738282,0 -0.761719,-0.1171875 -0.761719,-0.46875 V -2.3093359 c 0,-0.984375 0.421875,-1.875 1.183594,-1.875 0.05859,0 0.08203,0 0.105468,0.011719 -0.03516,0.011719 -0.234375,0.1289063 -0.234375,0.3867188 0,0.28125 0.210938,0.4335937 0.433594,0.4335937 0.175781,0 0.421875,-0.1289062 0.421875,-0.4453125 0,-0.3164062 -0.304687,-0.609375 -0.726562,-0.609375 -0.738282,0 -1.089844,0.6679688 -1.230469,1.1015622 z m 3.351562,0.796875 c 0.05859,-1.4882812 0.902344,-1.734375 1.242188,-1.734375 1.019531,0 1.125,1.3476563 1.125,1.734375 z m -0.01172,0.2109375 h 2.789062 c 0.210938,0 0.246094,0 0.246094,-0.2109375 0,-0.984375 -0.539063,-1.9570312 -1.78125,-1.9570312 -1.160156,0 -2.074219,1.03125 -2.074219,2.2734375 0,1.33593746 1.042969,2.29687496 2.191406,2.29687496 1.21875,0 1.664063,-1.1015625 1.664063,-1.28906246 0,-0.1054688 -0.08203,-0.1171875 -0.128906,-0.1171875 -0.09375,0 -0.117188,0.058594 -0.128907,0.140625 -0.351562,1.01953121 -1.253906,1.01953121 -1.347656,1.01953121 -0.503906,0 -0.902344,-0.29296875 -1.125,-0.66796875 C 70.39468,-1.2898047 70.39468,-1.9460547 70.39468,-2.2976172 Z m 7.110351,1.68750001 V 1.1711328 c 0,0.4570313 -0.105468,0.4570313 -0.773437,0.4570313 v 0.3046875 c 0.339844,-0.011719 0.855469,-0.035156 1.113281,-0.035156 0.269531,0 0.773438,0.023437 1.125,0.035156 V 1.6281641 c -0.667969,0 -0.773437,0 -0.773437,-0.4570313 v -5.578125 h -0.222657 l -0.375,0.9140625 c -0.128906,-0.28125 -0.539062,-0.9140625 -1.335937,-0.9140625 -1.160156,0 -2.203125,0.9726563 -2.203125,2.2617188 0,1.24218746 0.960937,2.24999996 2.121094,2.24999996 0.691406,0 1.101562,-0.421875 1.324218,-0.71484375 z m 0.03516,-2.14453121 v 1.3945312 c 0,0.328125 -0.1875,0.59765626 -0.398438,0.84375001 -0.128906,0.140625 -0.457031,0.41015625 -0.925781,0.41015625 -0.726563,0 -1.335938,-0.890625 -1.335938,-2.03906246 0,-1.1835938 0.703125,-2.0039063 1.441407,-2.0039063 0.796875,0 1.21875,0.8554688 1.21875,1.3945313 z m 5.329101,1.96874996 v 0.890625 L 84.310695,-7.421875e-4 V -0.30542969 c -0.703125,0 -0.785156,-0.0703125 -0.785156,-0.5625 V -4.4069922 l -1.453125,0.1171875 v 0.3046875 c 0.691406,0 0.773438,0.070312 0.773438,0.5625 v 1.7695313 c 0,0.86718746 -0.480469,1.54687496 -1.207032,1.54687496 -0.832031,0 -0.878906,-0.46875 -0.878906,-0.99609376 v -3.3046875 l -1.464844,0.1171875 v 0.3046875 c 0.785157,0 0.785157,0.035156 0.785157,0.9140625 v 1.5 c 0,0.77343751 0,1.67578126 1.511718,1.67578126 0.550782,0 0.996094,-0.26953125 1.277345,-0.890625 z m 2.756836,-1.72265626 c 0.05859,-1.4882812 0.902344,-1.734375 1.242188,-1.734375 1.019531,0 1.125,1.3476563 1.125,1.734375 z m -0.01172,0.2109375 h 2.789063 c 0.210937,0 0.246094,0 0.246094,-0.2109375 0,-0.984375 -0.539063,-1.9570312 -1.78125,-1.9570312 -1.160157,0 -2.074219,1.03125 -2.074219,2.2734375 0,1.33593746 1.042969,2.29687496 2.191406,2.29687496 1.21875,0 1.664063,-1.1015625 1.664063,-1.28906246 0,-0.1054688 -0.08203,-0.1171875 -0.128907,-0.1171875 -0.09375,0 -0.117187,0.058594 -0.128906,0.140625 -0.351562,1.01953121 -1.253906,1.01953121 -1.347656,1.01953121 -0.503906,0 -0.902344,-0.29296875 -1.125,-0.66796875 C 85.614406,-1.2898047 85.614406,-1.9460547 85.614406,-2.2976172 Z m 4.429688,-1.125 v 2.66015626 c 0,0.45703125 -0.117188,0.45703125 -0.785156,0.45703125 v 0.3046875025 c 0.351562,-0.0117187525 0.855468,-0.0351562525 1.125,-0.0351562525 0.257812,0 0.785156,0.0234375 1.113281,0.0351562525 V -0.30542969 c -0.65625,0 -0.773438,0 -0.773438,-0.45703125 V -2.5905859 c 0,-1.03125 0.714844,-1.59375 1.347657,-1.59375 0.621093,0 0.738281,0.5390625 0.738281,1.1015625 v 2.32031246 c 0,0.45703125 -0.117188,0.45703125 -0.773438,0.45703125 v 0.3046875025 c 0.339844,-0.0117187525 0.855469,-0.0351562525 1.125,-0.0351562525 0.257813,0 0.773438,0.0234375 1.113282,0.0351562525 V -0.30542969 c -0.515625,0 -0.773438,0 -0.785157,-0.3046875 V -2.5085547 c 0,-0.8554687 0,-1.171875 -0.304687,-1.5234375 -0.140625,-0.1757812 -0.46875,-0.375 -1.042969,-0.375 -0.726562,0 -1.195312,0.4335938 -1.476562,1.0546875 v -1.0546875 l -1.40625,0.1171875 v 0.3046875 c 0.703125,0 0.785156,0.070312 0.785156,0.5625 z m 5.592773,1.2539063 c 0,-1.6289063 0.820313,-2.0507813 1.347656,-2.0507813 0.09375,0 0.714844,0.011719 1.066407,0.375 -0.410157,0.023437 -0.46875,0.328125 -0.46875,0.4570313 0,0.2578125 0.1875,0.4570312 0.457031,0.4570312 0.257812,0 0.457031,-0.1640625 0.457031,-0.46875 0,-0.6796875 -0.75,-1.0664062 -1.523437,-1.0664062 -1.242188,0 -2.15625,1.078125 -2.15625,2.3085937 0,1.27734376 0.984375,2.26171876 2.144531,2.26171876 1.335937,0 1.652344,-1.19531246 1.652344,-1.28906246 0,-0.1054688 -0.105469,-0.1054688 -0.128907,-0.1054688 -0.09375,0 -0.117187,0.046875 -0.128906,0.1054688 -0.292969,0.92578121 -0.9375,1.04296871 -1.3125,1.04296871 -0.527344,0 -1.40625,-0.421875 -1.40625,-2.02734371 z m 7.403323,-1.1835938 c 0.25781,-0.6210937 0.76172,-0.6328125 0.92578,-0.6328125 v -0.3046875 c -0.23438,0.011719 -0.51563,0.023437 -0.75,0.023437 -0.17578,0 -0.64453,-0.023437 -0.86719,-0.023437 v 0.3046875 c 0.30469,0.011719 0.46875,0.1757813 0.46875,0.4335938 0,0.09375 -0.0117,0.1171875 -0.0586,0.234375 l -1.00781,2.44921871 -1.10157,-2.68359371 c -0.0469,-0.09375 -0.0586,-0.140625 -0.0586,-0.1757813 0,-0.2578125 0.36328,-0.2578125 0.55078,-0.2578125 v -0.3046875 c -0.25781,0 -0.91406,0.023437 -1.07812,0.023437 -0.269536,0 -0.667974,-0.011719 -0.972661,-0.023437 v 0.3046875 c 0.480469,0 0.667969,0 0.808594,0.3515625 l 1.499997,3.6328125125 c -0.0586,0.1289062475 -0.19922,0.4570312475 -0.25781,0.5859374975 -0.21094,0.55078129 -0.49219,1.24218749 -1.13672,1.24218749 -0.04687,0 -0.26953,0 -0.468749,-0.1875 0.316407,-0.035156 0.398438,-0.2578125 0.398438,-0.4101562 0,-0.26953129 -0.199219,-0.42187504 -0.421875,-0.42187504 -0.199219,0 -0.421875,0.12890625 -0.421875,0.42187504 0,0.4570312 0.421875,0.8085937 0.914061,0.8085937 0.63281,0 1.04297,-0.5625 1.27735,-1.13671874 z m 0,0"
       style="fill:#000000;fill-opacity:1;fill-rule:nonzero;stroke:none"
       aria-label="“Normalised”frequency"
       transform="matrix(0,-1.3333333,1.3333333,0,13.653333,212.73067)" />
  </g>
</svg>
