<?xml version="1.0" encoding="UTF-8" standalone="no"?>
<!-- Created with Inkscape (http://www.inkscape.org/) -->

<svg
   version="1.1"
   id="svg2"
   xml:space="preserve"
   width="174.83867"
   height="106.43867"
   viewBox="0 0 174.83867 106.43867"
   sodipodi:docname="maml_diagram.svg"
   inkscape:version="1.1.2 (76b9e6a115, 2022-02-25)"
   xmlns:inkscape="http://www.inkscape.org/namespaces/inkscape"
   xmlns:sodipodi="http://sodipodi.sourceforge.net/DTD/sodipodi-0.dtd"
   xmlns="http://www.w3.org/2000/svg"
   xmlns:svg="http://www.w3.org/2000/svg"><defs
     id="defs6" /><sodipodi:namedview
     id="namedview4"
     pagecolor="#ffffff"
     bordercolor="#666666"
     borderopacity="1.0"
     inkscape:pageshadow="2"
     inkscape:pageopacity="0.0"
     inkscape:pagecheckerboard="0"
     showgrid="false"
     inkscape:zoom="6.7550639"
     inkscape:cx="87.415901"
     inkscape:cy="53.219334"
     inkscape:window-width="1848"
     inkscape:window-height="1136"
     inkscape:window-x="72"
     inkscape:window-y="27"
     inkscape:window-maximized="1"
     inkscape:current-layer="g8" /><g
     id="g8"
     inkscape:groupmode="layer"
     inkscape:label="main"
     transform="matrix(1.3333333,0,0,-1.3333333,0,106.43867)"><g
       id="g10"
       transform="translate(-28.097,-38.743)"><g
         id="g12"><g
           id="g14"><g
             id="g16"><g
               id="g18"
               transform="translate(99.212,85.04)"><g
                 id="g20" /><g
                 id="g22"
                 transform="translate(-99.212,-85.04)" /></g></g><g
             id="g24"><g
               id="g26"
               transform="translate(99.427,92.079)"><g
                 id="g28"><g
                   id="g30"
                   transform="translate(-71.33,-53.336)"><text
                     transform="matrix(1,0,0,-1,71.33,53.336)"
                     style="font-variant:normal;font-weight:normal;font-size:9.9626px;font-family:CMMI10;-inkscape-font-specification:CMMI10;writing-mode:lr-tb;fill:#000000;fill-opacity:1;fill-rule:nonzero;stroke:none"
                     id="text34"><tspan
                       x="0"
                       y="0"
                       id="tspan32">θ</tspan></text><text
                     transform="matrix(1,0,0,-1,76.283,56.951)"
                     style="font-variant:normal;font-weight:normal;font-size:6.9738px;font-family:CMSY7;-inkscape-font-specification:CMSY7;writing-mode:lr-tb;fill:#000000;fill-opacity:1;fill-rule:nonzero;stroke:none"
                     id="text38"><tspan
                       x="0"
                       y="0"
                       id="tspan36">∗</tspan></text><g
                     id="g40"
                     transform="translate(71.33,53.336)" /></g></g><g
                 id="g42"
                 transform="translate(-99.427,-92.079)" /></g></g><g
             id="g44"><path
               d="m 101.20638,85.04042 c 0,1.10048 -0.89209,1.99255 -1.99256,1.99255 -1.10048,0 -1.99255,-0.89207 -1.99255,-1.99255 0,-1.10046 0.89207,-1.99255 1.99255,-1.99255 1.10047,0 1.99256,0.89209 1.99256,1.99255 z"
               style="fill:#b5251c;fill-opacity:1;fill-rule:nonzero;stroke:none"
               id="path46" /></g><g
             id="g48"><path
               d="m 28.3468,113.38724 c 0,0 15.3605,4.93689 21.2601,4.81889 5.8996,-0.11798 16.34377,-3.42747 21.2601,-5.66928 4.91634,-2.24181 10.24036,-6.67311 14.17342,-10.48817 3.93306,-3.81508 14.1734,-17.00826 11.11925,-13.07331"
               style="fill:none;stroke:#000000;stroke-width:0.49814;stroke-linecap:butt;stroke-linejoin:miter;stroke-miterlimit:10;stroke-dasharray:none;stroke-opacity:1"
               id="path50" /><g
               id="g52"
               transform="matrix(0.61311,-0.78993,0.78993,0.61311,96.15967,88.97537)"><g
                 id="g54"><path
                   d="M 3.95445,0 C 3.46883,0.11903 1.33417,0.79364 0,1.52777 V -1.52777 C 1.33417,-0.79364 3.46883,-0.11903 3.95445,0 Z"
                   style="fill:#000000;fill-opacity:1;fill-rule:nonzero;stroke:#000000;stroke-width:0.49814;stroke-linecap:butt;stroke-linejoin:miter;stroke-miterlimit:10;stroke-dasharray:none;stroke-opacity:1"
                   id="path56" /></g></g></g><g
             id="g58"><g
               id="g60"
               transform="translate(70.866,42.52)"><g
                 id="g62" /><g
                 id="g64"
                 transform="translate(-70.866,-42.52)" /></g></g><g
             id="g66"><g
               id="g68"
               transform="matrix(0.64279,0.76604,-0.76604,0.64279,62.929,44.382)"><g
                 id="g70"><g
                   id="g72"
                   transform="translate(-34.832,-5.639)"><text
                     transform="matrix(1,0,0,-1,34.832,5.639)"
                     style="font-variant:normal;font-weight:normal;font-size:9.9626px;font-family:CMBX10;-inkscape-font-specification:CMBX10;writing-mode:lr-tb;fill:#000000;fill-opacity:1;fill-rule:nonzero;stroke:none"
                     id="text76"><tspan
                       x="0"
                       y="0"
                       id="tspan74">w</tspan></text><text
                     transform="matrix(1,0,0,-1,43.106,4.144)"
                     style="font-variant:normal;font-weight:normal;font-size:6.9738px;font-family:CMR7;-inkscape-font-specification:CMR7;writing-mode:lr-tb;fill:#000000;fill-opacity:1;fill-rule:nonzero;stroke:none"
                     id="text80"><tspan
                       x="0"
                       y="0"
                       id="tspan78">1</tspan></text><g
                     id="g82"
                     transform="translate(34.832,5.639)" /></g></g><g
                 id="g84"
                 transform="translate(-62.929,-44.382)" /></g></g><g
             id="g86"><path
               d="m 72.85956,42.5202 c 0,1.10047 -0.89208,1.99256 -1.99256,1.99256 -1.10046,0 -1.99255,-0.89209 -1.99255,-1.99256 0,-1.10048 0.89209,-1.99255 1.99255,-1.99255 1.10048,0 1.99256,0.89207 1.99256,1.99255 z"
               style="fill:#10886e;fill-opacity:1;fill-rule:nonzero;stroke:none"
               id="path88" /></g><g
             id="g90"><g
               id="g92"
               transform="translate(127.559,43.937)"><g
                 id="g94" /><g
                 id="g96"
                 transform="translate(-127.559,-43.937)" /></g></g><g
             id="g98"><g
               id="g100"
               transform="matrix(0.5,-0.86603,0.86603,0.5,128.715,55.482)"><g
                 id="g102"><g
                   id="g104"
                   transform="translate(-100.618,-16.739)"><text
                     transform="matrix(1,0,0,-1,100.618,16.739)"
                     style="font-variant:normal;font-weight:normal;font-size:9.9626px;font-family:CMBX10;-inkscape-font-specification:CMBX10;writing-mode:lr-tb;fill:#000000;fill-opacity:1;fill-rule:nonzero;stroke:none"
                     id="text108"><tspan
                       x="0"
                       y="0"
                       id="tspan106">w</tspan></text><text
                     transform="matrix(1,0,0,-1,108.893,15.245)"
                     style="font-variant:normal;font-weight:normal;font-size:6.9738px;font-family:CMR7;-inkscape-font-specification:CMR7;writing-mode:lr-tb;fill:#000000;fill-opacity:1;fill-rule:nonzero;stroke:none"
                     id="text112"><tspan
                       x="0"
                       y="0"
                       id="tspan110">2</tspan></text><g
                     id="g114"
                     transform="translate(100.618,16.739)" /></g></g><g
                 id="g116"
                 transform="translate(-128.715,-55.482)" /></g></g><g
             id="g118"><path
               d="m 129.55318,43.93764 c 0,1.10046 -0.89208,1.99255 -1.99256,1.99255 -1.10046,0 -1.99255,-0.89209 -1.99255,-1.99255 0,-1.10048 0.89209,-1.99256 1.99255,-1.99256 1.10048,0 1.99256,0.89208 1.99256,1.99256 z"
               style="fill:#2e3192;fill-opacity:1;fill-rule:nonzero;stroke:none"
               id="path120" /></g><g
             id="g122"><g
               id="g124"
               transform="translate(155.905,85.04)"><g
                 id="g126" /><g
                 id="g128"
                 transform="translate(-155.905,-85.04)" /></g></g><g
             id="g130"><g
               id="g132"
               transform="translate(136.777,90.739)"><g
                 id="g134"><g
                   id="g136"
                   transform="translate(-108.68,-51.996)"><text
                     transform="matrix(1,0,0,-1,108.68,51.996)"
                     style="font-variant:normal;font-weight:normal;font-size:9.9626px;font-family:CMBX10;-inkscape-font-specification:CMBX10;writing-mode:lr-tb;fill:#000000;fill-opacity:1;fill-rule:nonzero;stroke:none"
                     id="text140"><tspan
                       x="0"
                       y="0"
                       id="tspan138">w</tspan></text><text
                     transform="matrix(1,0,0,-1,116.955,50.501)"
                     style="font-variant:normal;font-weight:normal;font-size:6.9738px;font-family:CMR7;-inkscape-font-specification:CMR7;writing-mode:lr-tb;fill:#000000;fill-opacity:1;fill-rule:nonzero;stroke:none"
                     id="text144"><tspan
                       x="0"
                       y="0"
                       id="tspan142">3</tspan></text><g
                     id="g146"
                     transform="translate(108.68,51.996)" /></g></g><g
                 id="g148"
                 transform="translate(-136.777,-90.739)" /></g></g><g
             id="g150"><path
               d="m 157.9,85.04042 c 0,1.10048 -0.8921,1.99255 -1.99256,1.99255 -1.10048,0 -1.99255,-0.89207 -1.99255,-1.99255 0,-1.10046 0.89207,-1.99255 1.99255,-1.99255 1.10046,0 1.99256,0.89209 1.99256,1.99255 z"
               style="fill:#f68512;fill-opacity:1;fill-rule:nonzero;stroke:none"
               id="path152" /></g><g
             id="g154"><path
               d="M 99.21382,85.04042 73.40898,46.33319"
               style="fill:none;stroke:#000000;stroke-width:0.3985;stroke-linecap:butt;stroke-linejoin:miter;stroke-miterlimit:10;stroke-dasharray:2.98883, 2.98883;stroke-dashoffset:0;stroke-opacity:1"
               id="path156" /><g
               id="g158"
               transform="matrix(-0.55467,-0.83202,0.83202,-0.55467,73.40898,46.3332)"><g
                 id="g160"><path
                   d="M 3.7613,0 C 3.2994,0.1127 1.26901,0.75136 0,1.44638 V -1.44638 C 1.26901,-0.75136 3.2994,-0.1127 3.7613,0 Z"
                   style="fill:#000000;fill-opacity:1;fill-rule:nonzero;stroke:#000000;stroke-width:0.3985;stroke-linecap:butt;stroke-linejoin:miter;stroke-miterlimit:10;stroke-dasharray:none;stroke-opacity:1"
                   id="path162" /></g></g></g><g
             id="g164"><path
               d="M 99.21382,85.04042 124.95901,47.71007"
               style="fill:none;stroke:#000000;stroke-width:0.3985;stroke-linecap:butt;stroke-linejoin:miter;stroke-miterlimit:10;stroke-dasharray:2.98883, 2.98883;stroke-dashoffset:0;stroke-opacity:1"
               id="path166" /><g
               id="g168"
               transform="matrix(0.56769,-0.82317,0.82317,0.56769,124.959,47.71008)"><g
                 id="g170"><path
                   d="M 3.7613,0 C 3.2994,0.1127 1.26901,0.75136 0,1.44638 V -1.44638 C 1.26901,-0.75136 3.2994,-0.1127 3.7613,0 Z"
                   style="fill:#000000;fill-opacity:1;fill-rule:nonzero;stroke:#000000;stroke-width:0.3985;stroke-linecap:butt;stroke-linejoin:miter;stroke-miterlimit:10;stroke-dasharray:none;stroke-opacity:1"
                   id="path172" /></g></g></g><g
             id="g174"><path
               d="m 99.21382,85.04042 h 52.11076"
               style="fill:none;stroke:#000000;stroke-width:0.3985;stroke-linecap:butt;stroke-linejoin:miter;stroke-miterlimit:10;stroke-dasharray:2.98883, 2.98883;stroke-dashoffset:0;stroke-opacity:1"
               id="path176" /><g
               id="g178"
               transform="translate(151.32458,85.04042)"><g
                 id="g180"><path
                   d="M 3.7613,0 C 3.2994,0.1127 1.26901,0.75136 0,1.44638 V -1.44638 C 1.26901,-0.75136 3.2994,-0.1127 3.7613,0 Z"
                   style="fill:#000000;fill-opacity:1;fill-rule:nonzero;stroke:#000000;stroke-width:0.3985;stroke-linecap:butt;stroke-linejoin:miter;stroke-miterlimit:10;stroke-dasharray:none;stroke-opacity:1"
                   id="path182" /></g></g></g></g></g></g></g></svg>
