<?xml version="1.0" encoding="UTF-8" standalone="no"?>
<!-- Created with Inkscape (http://www.inkscape.org/) -->

<svg
   version="1.1"
   id="svg2"
   xml:space="preserve"
   width="200.03333"
   height="126.73867"
   viewBox="0 0 200.03333 126.73867"
   sodipodi:docname="vampire_diagram.svg"
   inkscape:version="1.1.2 (76b9e6a115, 2022-02-25)"
   xmlns:inkscape="http://www.inkscape.org/namespaces/inkscape"
   xmlns:sodipodi="http://sodipodi.sourceforge.net/DTD/sodipodi-0.dtd"
   xmlns="http://www.w3.org/2000/svg"
   xmlns:svg="http://www.w3.org/2000/svg"><defs
     id="defs6" /><sodipodi:namedview
     id="namedview4"
     pagecolor="#ffffff"
     bordercolor="#666666"
     borderopacity="1.0"
     inkscape:pageshadow="2"
     inkscape:pageopacity="0.0"
     inkscape:pagecheckerboard="0"
     showgrid="false"
     inkscape:zoom="5.6730909"
     inkscape:cx="100.03365"
     inkscape:cy="63.369335"
     inkscape:window-width="1848"
     inkscape:window-height="1136"
     inkscape:window-x="72"
     inkscape:window-y="27"
     inkscape:window-maximized="1"
     inkscape:current-layer="g8" /><g
     id="g8"
     inkscape:groupmode="layer"
     inkscape:label="main"
     transform="matrix(1.3333333,0,0,-1.3333333,0,126.73867)"><g
       id="g10"
       transform="translate(-28.097,-23.518)"><g
         id="g12"><g
           id="g14"><g
             id="g16"><g
               id="g18"
               transform="translate(99.212,85.04)"><g
                 id="g20" /><g
                 id="g22"
                 transform="translate(-99.212,-85.04)" /></g></g><g
             id="g24"><g
               id="g26"
               transform="translate(91.597,104.532)"><g
                 id="g28"><g
                   id="g30"
                   transform="translate(-63.5,-81.014)"><text
                     transform="matrix(1,0,0,-1,63.5,81.014)"
                     style="font-variant:normal;font-weight:normal;font-size:9.9626px;font-family:CMMI10;-inkscape-font-specification:CMMI10;writing-mode:lr-tb;fill:#000000;fill-opacity:1;fill-rule:nonzero;stroke:none"
                     id="text34"><tspan
                       x="0"
                       y="0"
                       id="tspan32">p</tspan></text><text
                     transform="matrix(1,0,0,-1,68.512,81.014)"
                     style="font-variant:normal;font-weight:normal;font-size:9.9626px;font-family:CMR10;-inkscape-font-specification:CMR10;writing-mode:lr-tb;fill:#000000;fill-opacity:1;fill-rule:nonzero;stroke:none"
                     id="text38"><tspan
                       x="0"
                       y="0"
                       id="tspan36">(</tspan></text><text
                     transform="matrix(1,0,0,-1,72.386,81.014)"
                     style="font-variant:normal;font-weight:normal;font-size:9.9626px;font-family:CMBX10;-inkscape-font-specification:CMBX10;writing-mode:lr-tb;fill:#000000;fill-opacity:1;fill-rule:nonzero;stroke:none"
                     id="text42"><tspan
                       x="0"
                       y="0"
                       id="tspan40">w</tspan></text><text
                     transform="matrix(1,0,0,-1,80.82,81.014)"
                     style="font-variant:normal;font-weight:normal;font-size:9.9626px;font-family:CMR10;-inkscape-font-specification:CMR10;writing-mode:lr-tb;fill:#000000;fill-opacity:1;fill-rule:nonzero;stroke:none"
                     id="text46"><tspan
                       x="0"
                       y="0"
                       id="tspan44">;</tspan></text><text
                     transform="matrix(1,0,0,-1,85.248,81.014)"
                     style="font-variant:normal;font-weight:normal;font-size:9.9626px;font-family:CMMI10;-inkscape-font-specification:CMMI10;writing-mode:lr-tb;fill:#000000;fill-opacity:1;fill-rule:nonzero;stroke:none"
                     id="text50"><tspan
                       x="0"
                       y="0"
                       id="tspan48">θ</tspan></text><text
                     transform="matrix(1,0,0,-1,90.202,84.63)"
                     style="font-variant:normal;font-weight:normal;font-size:6.9738px;font-family:CMSY7;-inkscape-font-specification:CMSY7;writing-mode:lr-tb;fill:#000000;fill-opacity:1;fill-rule:nonzero;stroke:none"
                     id="text54"><tspan
                       x="0"
                       y="0"
                       id="tspan52">∗</tspan></text><text
                     transform="matrix(1,0,0,-1,94.782,81.014)"
                     style="font-variant:normal;font-weight:normal;font-size:9.9626px;font-family:CMR10;-inkscape-font-specification:CMR10;writing-mode:lr-tb;fill:#000000;fill-opacity:1;fill-rule:nonzero;stroke:none"
                     id="text58"><tspan
                       x="0"
                       y="0"
                       id="tspan56">)</tspan></text><g
                     id="g60"
                     transform="translate(63.5,81.014)" /></g></g><g
                 id="g62"
                 transform="translate(-91.597,-104.532)" /></g></g><g
             id="g64"><path
               d="m 101.20638,85.04042 c 0,1.10048 -0.89209,1.99255 -1.99256,1.99255 -1.10048,0 -1.99255,-0.89207 -1.99255,-1.99255 0,-1.10046 0.89207,-1.99255 1.99255,-1.99255 1.10047,0 1.99256,0.89209 1.99256,1.99255 z"
               style="fill:#b5251c;fill-opacity:1;fill-rule:nonzero;stroke:none"
               id="path66" /></g><g
             id="g68"><path
               d="m 113.38722,85.04042 c 0,3.91393 -6.34555,7.08668 -14.1734,7.08668 -7.82785,0 -14.1734,-3.17275 -14.1734,-7.08668 0,-3.91391 6.34555,-7.08668 14.1734,-7.08668 7.82785,0 14.1734,3.17277 14.1734,7.08668 z"
               style="fill:none;stroke:#ff8080;stroke-width:0.3985;stroke-linecap:butt;stroke-linejoin:miter;stroke-miterlimit:10;stroke-dasharray:none;stroke-opacity:1"
               id="path70" /></g><g
             id="g72"><path
               d="m 127.56062,85.04042 c 0,7.82785 -12.69108,14.1734 -28.3468,14.1734 -15.65572,0 -28.34682,-6.34555 -28.34682,-14.1734 0,-7.82785 12.6911,-14.1734 28.34682,-14.1734 15.65572,0 28.3468,6.34555 28.3468,14.1734 z"
               style="fill:none;stroke:#ff8080;stroke-width:0.3985;stroke-linecap:butt;stroke-linejoin:miter;stroke-miterlimit:10;stroke-dasharray:none;stroke-opacity:1"
               id="path74" /></g><g
             id="g76"><path
               d="m 28.3468,113.38724 c 0,0 15.3605,4.93689 21.2601,4.81889 5.8996,-0.11798 16.34377,-3.42747 21.2601,-5.66928 4.91634,-2.24181 10.24036,-6.67311 14.17342,-10.48817 3.93306,-3.81508 14.1734,-17.00826 11.11925,-13.07331"
               style="fill:none;stroke:#000000;stroke-width:0.49814;stroke-linecap:butt;stroke-linejoin:miter;stroke-miterlimit:10;stroke-dasharray:none;stroke-opacity:1"
               id="path78" /><g
               id="g80"
               transform="matrix(0.61311,-0.78993,0.78993,0.61311,96.15967,88.97537)"><g
                 id="g82"><path
                   d="M 3.95445,0 C 3.46883,0.11903 1.33417,0.79364 0,1.52777 V -1.52777 C 1.33417,-0.79364 3.46883,-0.11903 3.95445,0 Z"
                   style="fill:#000000;fill-opacity:1;fill-rule:nonzero;stroke:#000000;stroke-width:0.49814;stroke-linecap:butt;stroke-linejoin:miter;stroke-miterlimit:10;stroke-dasharray:none;stroke-opacity:1"
                   id="path84" /></g></g></g><g
             id="g86"><g
               id="g88"
               transform="translate(70.866,42.52)"><g
                 id="g90" /><g
                 id="g92"
                 transform="translate(-70.866,-42.52)" /></g></g><g
             id="g94"><g
               id="g96"
               transform="matrix(0.7071,0.7071,-0.7071,0.7071,49.693,38.597)"><g
                 id="g98"><g
                   id="g100"
                   transform="translate(-21.596,-15.079)"><text
                     transform="matrix(1,0,0,-1,21.596,15.079)"
                     style="font-variant:normal;font-weight:normal;font-size:9.9626px;font-family:CMMI10;-inkscape-font-specification:CMMI10;writing-mode:lr-tb;fill:#000000;fill-opacity:1;fill-rule:nonzero;stroke:none"
                     id="text104"><tspan
                       x="0"
                       y="0"
                       id="tspan102">q</tspan></text><text
                     transform="matrix(1,0,0,-1,26.4,15.079)"
                     style="font-variant:normal;font-weight:normal;font-size:9.9626px;font-family:CMR10;-inkscape-font-specification:CMR10;writing-mode:lr-tb;fill:#000000;fill-opacity:1;fill-rule:nonzero;stroke:none"
                     id="text108"><tspan
                       x="0"
                       y="0"
                       id="tspan106">(</tspan></text><text
                     transform="matrix(1,0,0,-1,30.275,15.079)"
                     style="font-variant:normal;font-weight:normal;font-size:9.9626px;font-family:CMBX10;-inkscape-font-specification:CMBX10;writing-mode:lr-tb;fill:#000000;fill-opacity:1;fill-rule:nonzero;stroke:none"
                     id="text112"><tspan
                       x="0"
                       y="0"
                       id="tspan110">w</tspan></text><text
                     transform="matrix(1,0,0,-1,38.549,13.584)"
                     style="font-variant:normal;font-weight:normal;font-size:6.9738px;font-family:CMR7;-inkscape-font-specification:CMR7;writing-mode:lr-tb;fill:#000000;fill-opacity:1;fill-rule:nonzero;stroke:none"
                     id="text116"><tspan
                       x="0"
                       y="0"
                       id="tspan114">1</tspan></text><text
                     transform="matrix(1,0,0,-1,43.019,15.079)"
                     style="font-variant:normal;font-weight:normal;font-size:9.9626px;font-family:CMR10;-inkscape-font-specification:CMR10;writing-mode:lr-tb;fill:#000000;fill-opacity:1;fill-rule:nonzero;stroke:none"
                     id="text120"><tspan
                       x="0"
                       y="0"
                       id="tspan118">;</tspan></text><text
                     transform="matrix(1,0,0,-1,47.447,15.079)"
                     style="font-variant:normal;font-weight:normal;font-size:9.9626px;font-family:CMMI10;-inkscape-font-specification:CMMI10;writing-mode:lr-tb;fill:#000000;fill-opacity:1;fill-rule:nonzero;stroke:none"
                     id="text124"><tspan
                       x="0"
                       y="0"
                       id="tspan122">λ</tspan></text><text
                     transform="matrix(1,0,0,-1,53.258,18.694)"
                     style="font-variant:normal;font-weight:normal;font-size:6.9738px;font-family:CMSY7;-inkscape-font-specification:CMSY7;writing-mode:lr-tb;fill:#000000;fill-opacity:1;fill-rule:nonzero;stroke:none"
                     id="text128"><tspan
                       x="0"
                       y="0"
                       id="tspan126">∗</tspan></text><text
                     transform="matrix(1,0,0,-1,53.258,12.606)"
                     style="font-variant:normal;font-weight:normal;font-size:6.9738px;font-family:CMR7;-inkscape-font-specification:CMR7;writing-mode:lr-tb;fill:#000000;fill-opacity:1;fill-rule:nonzero;stroke:none"
                     id="text132"><tspan
                       x="0"
                       y="0"
                       id="tspan130">1</tspan></text><text
                     transform="matrix(1,0,0,-1,57.838,15.079)"
                     style="font-variant:normal;font-weight:normal;font-size:9.9626px;font-family:CMR10;-inkscape-font-specification:CMR10;writing-mode:lr-tb;fill:#000000;fill-opacity:1;fill-rule:nonzero;stroke:none"
                     id="text136"><tspan
                       x="0"
                       y="0"
                       id="tspan134">)</tspan></text><g
                     id="g138"
                     transform="translate(21.596,15.079)" /></g></g><g
                 id="g140"
                 transform="translate(-49.693,-38.597)" /></g></g><g
             id="g142"><path
               d="m 72.85956,42.5202 c 0,1.10047 -0.89208,1.99256 -1.99256,1.99256 -1.10046,0 -1.99255,-0.89209 -1.99255,-1.99256 0,-1.10048 0.89209,-1.99255 1.99255,-1.99255 1.10048,0 1.99256,0.89207 1.99256,1.99255 z"
               style="fill:#10886e;fill-opacity:1;fill-rule:nonzero;stroke:none"
               id="path144" /></g><g
             id="g146"><path
               d="m 78.88463,50.5379 c -1.38376,1.38376 -6.09506,-1.08401 -10.52309,-5.51205 -4.42804,-4.42803 -6.89581,-9.13933 -5.51205,-10.52309 1.38376,-1.38376 6.09504,1.08403 10.52308,5.51206 4.42803,4.42804 6.89582,9.13932 5.51206,10.52308 z"
               style="fill:none;stroke:#10886e;stroke-width:0.3985;stroke-linecap:butt;stroke-linejoin:miter;stroke-miterlimit:10;stroke-dasharray:none;stroke-opacity:1"
               id="path148" /></g><g
             id="g150"><path
               d="M 86.90219,58.55548 C 84.13464,61.32303 74.71208,56.38745 65.85602,47.53139 56.99995,38.67531 52.06436,29.25275 54.83192,26.4852 c 2.76755,-2.76755 12.19011,2.16803 21.04618,11.0241 8.85606,8.85606 13.79164,18.27862 11.02409,21.04618 z"
               style="fill:none;stroke:#10886e;stroke-width:0.3985;stroke-linecap:butt;stroke-linejoin:miter;stroke-miterlimit:10;stroke-dasharray:none;stroke-opacity:1"
               id="path152" /></g><g
             id="g154"><g
               id="g156"
               transform="translate(127.559,42.52)"><g
                 id="g158" /><g
                 id="g160"
                 transform="translate(-127.559,-42.52)" /></g></g><g
             id="g162"><g
               id="g164"
               transform="matrix(0.7071,-0.7071,0.7071,0.7071,120.116,66.964)"><g
                 id="g166"><g
                   id="g168"
                   transform="translate(-92.019,-43.446)"><text
                     transform="matrix(1,0,0,-1,92.019,43.446)"
                     style="font-variant:normal;font-weight:normal;font-size:9.9626px;font-family:CMMI10;-inkscape-font-specification:CMMI10;writing-mode:lr-tb;fill:#000000;fill-opacity:1;fill-rule:nonzero;stroke:none"
                     id="text172"><tspan
                       x="0"
                       y="0"
                       id="tspan170">q</tspan></text><text
                     transform="matrix(1,0,0,-1,96.824,43.446)"
                     style="font-variant:normal;font-weight:normal;font-size:9.9626px;font-family:CMR10;-inkscape-font-specification:CMR10;writing-mode:lr-tb;fill:#000000;fill-opacity:1;fill-rule:nonzero;stroke:none"
                     id="text176"><tspan
                       x="0"
                       y="0"
                       id="tspan174">(</tspan></text><text
                     transform="matrix(1,0,0,-1,100.698,43.446)"
                     style="font-variant:normal;font-weight:normal;font-size:9.9626px;font-family:CMBX10;-inkscape-font-specification:CMBX10;writing-mode:lr-tb;fill:#000000;fill-opacity:1;fill-rule:nonzero;stroke:none"
                     id="text180"><tspan
                       x="0"
                       y="0"
                       id="tspan178">w</tspan></text><text
                     transform="matrix(1,0,0,-1,108.973,41.951)"
                     style="font-variant:normal;font-weight:normal;font-size:6.9738px;font-family:CMR7;-inkscape-font-specification:CMR7;writing-mode:lr-tb;fill:#000000;fill-opacity:1;fill-rule:nonzero;stroke:none"
                     id="text184"><tspan
                       x="0"
                       y="0"
                       id="tspan182">2</tspan></text><text
                     transform="matrix(1,0,0,-1,113.442,43.446)"
                     style="font-variant:normal;font-weight:normal;font-size:9.9626px;font-family:CMR10;-inkscape-font-specification:CMR10;writing-mode:lr-tb;fill:#000000;fill-opacity:1;fill-rule:nonzero;stroke:none"
                     id="text188"><tspan
                       x="0"
                       y="0"
                       id="tspan186">;</tspan></text><text
                     transform="matrix(1,0,0,-1,117.87,43.446)"
                     style="font-variant:normal;font-weight:normal;font-size:9.9626px;font-family:CMMI10;-inkscape-font-specification:CMMI10;writing-mode:lr-tb;fill:#000000;fill-opacity:1;fill-rule:nonzero;stroke:none"
                     id="text192"><tspan
                       x="0"
                       y="0"
                       id="tspan190">λ</tspan></text><text
                     transform="matrix(1,0,0,-1,123.681,47.061)"
                     style="font-variant:normal;font-weight:normal;font-size:6.9738px;font-family:CMSY7;-inkscape-font-specification:CMSY7;writing-mode:lr-tb;fill:#000000;fill-opacity:1;fill-rule:nonzero;stroke:none"
                     id="text196"><tspan
                       x="0"
                       y="0"
                       id="tspan194">∗</tspan></text><text
                     transform="matrix(1,0,0,-1,123.681,40.973)"
                     style="font-variant:normal;font-weight:normal;font-size:6.9738px;font-family:CMR7;-inkscape-font-specification:CMR7;writing-mode:lr-tb;fill:#000000;fill-opacity:1;fill-rule:nonzero;stroke:none"
                     id="text200"><tspan
                       x="0"
                       y="0"
                       id="tspan198">2</tspan></text><text
                     transform="matrix(1,0,0,-1,128.261,43.446)"
                     style="font-variant:normal;font-weight:normal;font-size:9.9626px;font-family:CMR10;-inkscape-font-specification:CMR10;writing-mode:lr-tb;fill:#000000;fill-opacity:1;fill-rule:nonzero;stroke:none"
                     id="text204"><tspan
                       x="0"
                       y="0"
                       id="tspan202">)</tspan></text><g
                     id="g206"
                     transform="translate(92.019,43.446)" /></g></g><g
                 id="g208"
                 transform="translate(-120.116,-66.964)" /></g></g><g
             id="g210"><path
               d="m 129.55318,42.5202 c 0,1.10047 -0.89208,1.99256 -1.99256,1.99256 -1.10046,0 -1.99255,-0.89209 -1.99255,-1.99256 0,-1.10048 0.89209,-1.99255 1.99255,-1.99255 1.10048,0 1.99256,0.89207 1.99256,1.99255 z"
               style="fill:#2e3192;fill-opacity:1;fill-rule:nonzero;stroke:none"
               id="path212" /></g><g
             id="g214"><path
               d="m 135.57846,34.50249 c 1.38376,1.38377 -1.08403,6.09506 -5.51206,10.52308 -4.42803,4.42804 -9.13932,6.89582 -10.52308,5.51206 -1.38376,-1.38376 1.08401,-6.09505 5.51205,-10.52309 4.42803,-4.42802 9.13933,-6.89581 10.52309,-5.51205 z"
               style="fill:none;stroke:#2e3192;stroke-width:0.3985;stroke-linecap:butt;stroke-linejoin:miter;stroke-miterlimit:10;stroke-dasharray:none;stroke-opacity:1"
               id="path216" /></g><g
             id="g218"><path
               d="m 143.59602,26.48492 c 2.76755,2.76755 -2.16802,12.19013 -11.02409,21.04619 -8.85606,8.85607 -18.27863,13.79164 -21.04617,11.02409 -2.76756,-2.76756 2.16803,-12.19012 11.02409,-21.04618 8.85606,-8.85607 18.27863,-13.79164 21.04617,-11.0241 z"
               style="fill:none;stroke:#2e3192;stroke-width:0.3985;stroke-linecap:butt;stroke-linejoin:miter;stroke-miterlimit:10;stroke-dasharray:none;stroke-opacity:1"
               id="path220" /></g><g
             id="g222"><g
               id="g224"
               transform="translate(155.905,85.04)"><g
                 id="g226" /><g
                 id="g228"
                 transform="translate(-155.905,-85.04)" /></g></g><g
             id="g230"><g
               id="g232"
               transform="rotate(90,51.905,120.406)"><g
                 id="g234"><g
                   id="g236"
                   transform="translate(-144.214,-44.983)"><text
                     transform="matrix(1,0,0,-1,144.214,44.983)"
                     style="font-variant:normal;font-weight:normal;font-size:9.9626px;font-family:CMMI10;-inkscape-font-specification:CMMI10;writing-mode:lr-tb;fill:#000000;fill-opacity:1;fill-rule:nonzero;stroke:none"
                     id="text240"><tspan
                       x="0"
                       y="0"
                       id="tspan238">q</tspan></text><text
                     transform="matrix(1,0,0,-1,149.019,44.983)"
                     style="font-variant:normal;font-weight:normal;font-size:9.9626px;font-family:CMR10;-inkscape-font-specification:CMR10;writing-mode:lr-tb;fill:#000000;fill-opacity:1;fill-rule:nonzero;stroke:none"
                     id="text244"><tspan
                       x="0"
                       y="0"
                       id="tspan242">(</tspan></text><text
                     transform="matrix(1,0,0,-1,152.893,44.983)"
                     style="font-variant:normal;font-weight:normal;font-size:9.9626px;font-family:CMBX10;-inkscape-font-specification:CMBX10;writing-mode:lr-tb;fill:#000000;fill-opacity:1;fill-rule:nonzero;stroke:none"
                     id="text248"><tspan
                       x="0"
                       y="0"
                       id="tspan246">w</tspan></text><text
                     transform="matrix(1,0,0,-1,161.167,43.488)"
                     style="font-variant:normal;font-weight:normal;font-size:6.9738px;font-family:CMR7;-inkscape-font-specification:CMR7;writing-mode:lr-tb;fill:#000000;fill-opacity:1;fill-rule:nonzero;stroke:none"
                     id="text252"><tspan
                       x="0"
                       y="0"
                       id="tspan250">3</tspan></text><text
                     transform="matrix(1,0,0,-1,165.637,44.983)"
                     style="font-variant:normal;font-weight:normal;font-size:9.9626px;font-family:CMR10;-inkscape-font-specification:CMR10;writing-mode:lr-tb;fill:#000000;fill-opacity:1;fill-rule:nonzero;stroke:none"
                     id="text256"><tspan
                       x="0"
                       y="0"
                       id="tspan254">;</tspan></text><text
                     transform="matrix(1,0,0,-1,170.065,44.983)"
                     style="font-variant:normal;font-weight:normal;font-size:9.9626px;font-family:CMMI10;-inkscape-font-specification:CMMI10;writing-mode:lr-tb;fill:#000000;fill-opacity:1;fill-rule:nonzero;stroke:none"
                     id="text260"><tspan
                       x="0"
                       y="0"
                       id="tspan258">λ</tspan></text><text
                     transform="matrix(1,0,0,-1,175.876,48.598)"
                     style="font-variant:normal;font-weight:normal;font-size:6.9738px;font-family:CMSY7;-inkscape-font-specification:CMSY7;writing-mode:lr-tb;fill:#000000;fill-opacity:1;fill-rule:nonzero;stroke:none"
                     id="text264"><tspan
                       x="0"
                       y="0"
                       id="tspan262">∗</tspan></text><text
                     transform="matrix(1,0,0,-1,175.876,42.51)"
                     style="font-variant:normal;font-weight:normal;font-size:6.9738px;font-family:CMR7;-inkscape-font-specification:CMR7;writing-mode:lr-tb;fill:#000000;fill-opacity:1;fill-rule:nonzero;stroke:none"
                     id="text268"><tspan
                       x="0"
                       y="0"
                       id="tspan266">3</tspan></text><text
                     transform="matrix(1,0,0,-1,180.456,44.983)"
                     style="font-variant:normal;font-weight:normal;font-size:9.9626px;font-family:CMR10;-inkscape-font-specification:CMR10;writing-mode:lr-tb;fill:#000000;fill-opacity:1;fill-rule:nonzero;stroke:none"
                     id="text272"><tspan
                       x="0"
                       y="0"
                       id="tspan270">)</tspan></text><g
                     id="g274"
                     transform="translate(144.214,44.983)" /></g></g><g
                 id="g276"
                 transform="translate(-172.311,-68.501)" /></g></g><g
             id="g278"><path
               d="m 157.9,85.04042 c 0,1.10048 -0.8921,1.99255 -1.99256,1.99255 -1.10048,0 -1.99255,-0.89207 -1.99255,-1.99255 0,-1.10046 0.89207,-1.99255 1.99255,-1.99255 1.10046,0 1.99256,0.89209 1.99256,1.99255 z"
               style="fill:#f68512;fill-opacity:1;fill-rule:nonzero;stroke:none"
               id="path280" /></g><g
             id="g282"><path
               d="m 155.90744,96.37897 c -1.95695,0 -3.54334,-5.07637 -3.54334,-11.33855 0,-6.26218 1.58639,-11.33855 3.54334,-11.33855 1.95696,0 3.54334,5.07637 3.54334,11.33855 0,6.26218 -1.58638,11.33855 -3.54334,11.33855 z"
               style="fill:none;stroke:#ff8000;stroke-width:0.3985;stroke-linecap:butt;stroke-linejoin:miter;stroke-miterlimit:10;stroke-dasharray:none;stroke-opacity:1"
               id="path284" /></g><g
             id="g286"><path
               d="m 155.90744,107.71751 c -3.91392,0 -7.08668,-10.15272 -7.08668,-22.67709 0,-12.52437 3.17276,-22.67709 7.08668,-22.67709 3.91391,0 7.08669,10.15272 7.08669,22.67709 0,12.52437 -3.17278,22.67709 -7.08669,22.67709 z"
               style="fill:none;stroke:#ff8000;stroke-width:0.3985;stroke-linecap:butt;stroke-linejoin:miter;stroke-miterlimit:10;stroke-dasharray:none;stroke-opacity:1"
               id="path288" /></g><g
             id="g290"><path
               d="M 99.21382,85.04042 73.40898,46.33319"
               style="fill:none;stroke:#000000;stroke-width:0.3985;stroke-linecap:butt;stroke-linejoin:miter;stroke-miterlimit:10;stroke-dasharray:2.98883, 2.98883;stroke-dashoffset:0;stroke-opacity:1"
               id="path292" /><g
               id="g294"
               transform="matrix(-0.55467,-0.83202,0.83202,-0.55467,73.40898,46.3332)"><g
                 id="g296"><path
                   d="M 3.7613,0 C 3.2994,0.1127 1.26901,0.75136 0,1.44638 V -1.44638 C 1.26901,-0.75136 3.2994,-0.1127 3.7613,0 Z"
                   style="fill:#000000;fill-opacity:1;fill-rule:nonzero;stroke:#000000;stroke-width:0.3985;stroke-linecap:butt;stroke-linejoin:miter;stroke-miterlimit:10;stroke-dasharray:none;stroke-opacity:1"
                   id="path298" /></g></g></g><g
             id="g300"><path
               d="M 99.21382,85.04042 125.01866,46.33319"
               style="fill:none;stroke:#000000;stroke-width:0.3985;stroke-linecap:butt;stroke-linejoin:miter;stroke-miterlimit:10;stroke-dasharray:2.98883, 2.98883;stroke-dashoffset:0;stroke-opacity:1"
               id="path302" /><g
               id="g304"
               transform="matrix(0.55467,-0.83202,0.83202,0.55467,125.01866,46.3332)"><g
                 id="g306"><path
                   d="M 3.7613,0 C 3.2994,0.1127 1.26901,0.75136 0,1.44638 V -1.44638 C 1.26901,-0.75136 3.2994,-0.1127 3.7613,0 Z"
                   style="fill:#000000;fill-opacity:1;fill-rule:nonzero;stroke:#000000;stroke-width:0.3985;stroke-linecap:butt;stroke-linejoin:miter;stroke-miterlimit:10;stroke-dasharray:none;stroke-opacity:1"
                   id="path308" /></g></g></g><g
             id="g310"><path
               d="m 99.21382,85.04042 h 52.11076"
               style="fill:none;stroke:#000000;stroke-width:0.3985;stroke-linecap:butt;stroke-linejoin:miter;stroke-miterlimit:10;stroke-dasharray:2.98883, 2.98883;stroke-dashoffset:0;stroke-opacity:1"
               id="path312" /><g
               id="g314"
               transform="translate(151.32458,85.04042)"><g
                 id="g316"><path
                   d="M 3.7613,0 C 3.2994,0.1127 1.26901,0.75136 0,1.44638 V -1.44638 C 1.26901,-0.75136 3.2994,-0.1127 3.7613,0 Z"
                   style="fill:#000000;fill-opacity:1;fill-rule:nonzero;stroke:#000000;stroke-width:0.3985;stroke-linecap:butt;stroke-linejoin:miter;stroke-miterlimit:10;stroke-dasharray:none;stroke-opacity:1"
                   id="path318" /></g></g></g></g></g></g></g></svg>
