<?xml version="1.0" encoding="UTF-8" standalone="no"?>
<!-- Generator: Adobe Illustrator 24.2.1, SVG Export Plug-In . SVG Version: 6.00 Build 0)  -->

<svg
   version="1.1"
   id="Layer_1"
   x="0px"
   y="0px"
   viewBox="0 0 356.99999 150.6"
   xml:space="preserve"
   sodipodi:docname="Intel_logo_2023.svg"
   width="357"
   height="150.60001"
   inkscape:version="1.2.2 (732a01da63, 2022-12-09, custom)"
   xmlns:inkscape="http://www.inkscape.org/namespaces/inkscape"
   xmlns:sodipodi="http://sodipodi.sourceforge.net/DTD/sodipodi-0.dtd"
   xmlns="http://www.w3.org/2000/svg"
   xmlns:svg="http://www.w3.org/2000/svg"><defs
   id="defs29" /><sodipodi:namedview
   id="namedview27"
   pagecolor="#ffffff"
   bordercolor="#000000"
   borderopacity="0.25"
   inkscape:showpageshadow="2"
   inkscape:pageopacity="0.0"
   inkscape:pagecheckerboard="0"
   inkscape:deskcolor="#d1d1d1"
   showgrid="false"
   inkscape:zoom="3.3745491"
   inkscape:cx="173.65283"
   inkscape:cy="75.713819"
   inkscape:window-width="2490"
   inkscape:window-height="1376"
   inkscape:window-x="70"
   inkscape:window-y="27"
   inkscape:window-maximized="1"
   inkscape:current-layer="Layer_1" />
<style
   type="text/css"
   id="style18">
	.st0{fill:#04C7FD;}
	.st1{fill:#0068B5;}
</style>
<rect
   y="2.0999999"
   class="st0"
   width="28.1"
   height="28.1"
   id="rect20"
   x="0" />
<path
   class="st1"
   d="M 27.4,148.5 V 47.3 H 0.8 v 101.2 z m 176.8,1 v -24.8 c -3.9,0 -7.2,-0.2 -9.6,-0.6 -2.8,-0.4 -4.9,-1.4 -6.3,-2.8 -1.4,-1.4 -2.3,-3.4 -2.8,-6 -0.4,-2.5 -0.6,-5.8 -0.6,-9.8 V 70.1 h 19.3 V 47.3 H 184.9 V 7.8 h -26.7 v 97.9 c 0,8.3 0.7,15.3 2.1,20.9 1.4,5.5 3.8,10 7.1,13.4 3.3,3.4 7.7,5.8 13,7.3 5.4,1.5 12.2,2.2 20.3,2.2 z m 152.8,-1 V 0 H 330.3 V 148.5 Z M 132.5,57.2 c -7.4,-8 -17.8,-12 -31,-12 -6.4,0 -12.2,1.3 -17.5,3.9 -5.2,2.6 -9.7,6.2 -13.2,10.8 l -1.5,1.9 V 60.1 47.3 H 43 v 101.2 h 26.5 v -53.9 3.7 c 0,-0.6 0,-1.2 0,-1.8 0.3,-9.5 2.6,-16.5 7,-21 4.7,-4.8 10.4,-7.2 16.9,-7.2 7.7,0 13.6,2.4 17.5,7 3.8,4.6 5.8,11.1 5.8,19.4 v 0 0.2 0 0 53.5 h 26.9 V 91 c 0.1,-14.4 -3.7,-25.8 -11.1,-33.8 z m 184,40.5 c 0,-7.3 -1.3,-14.1 -3.8,-20.5 -2.6,-6.3 -6.2,-11.9 -10.7,-16.7 -4.6,-4.8 -10.1,-8.5 -16.5,-11.2 -6.4,-2.7 -13.5,-4 -21.2,-4 -7.3,0 -14.2,1.4 -20.6,4.1 -6.4,2.8 -12,6.5 -16.7,11.2 -4.7,4.7 -8.5,10.3 -11.2,16.7 -2.8,6.4 -4.1,13.3 -4.1,20.6 0,7.3 1.3,14.2 3.9,20.6 2.6,6.4 6.3,12 10.9,16.7 4.6,4.7 10.3,8.5 16.9,11.2 6.6,2.8 13.9,4.2 21.7,4.2 22.6,0 36.6,-10.3 45,-19.9 l -19.2,-14.6 c -4,4.8 -13.6,11.3 -25.6,11.3 -7.5,0 -13.7,-1.7 -18.4,-5.2 -4.7,-3.4 -7.9,-8.2 -9.6,-14.1 l -0.3,-0.9 h 79.5 z m -79.3,-9.3 c 0,-7.4 8.5,-20.3 26.8,-20.4 18.3,0 26.9,12.9 26.9,20.3 z"
   id="path22" />

</svg>
