<?xml version="1.0" encoding="UTF-8" standalone="no"?>
<!-- Generator: Adobe Illustrator 16.0.0, SVG Export Plug-In . SVG Version: 6.00 Build 0)  -->

<svg
   version="1.1"
   id="Layer_1"
   x="0px"
   y="0px"
   width="117.59531"
   height="119.2684"
   viewBox="4.682 339.157 117.59531 119.2684"
   enable-background="new 4.682 339.157 603.172 120.385"
   xml:space="preserve"
   sodipodi:docname="pdx_horizontal.svg"
   inkscape:version="1.2.2 (732a01da63, 2022-12-09, custom)"
   xmlns:inkscape="http://www.inkscape.org/namespaces/inkscape"
   xmlns:sodipodi="http://sodipodi.sourceforge.net/DTD/sodipodi-0.dtd"
   xmlns="http://www.w3.org/2000/svg"
   xmlns:svg="http://www.w3.org/2000/svg"><defs
   id="defs69"><clipPath
     clipPathUnits="userSpaceOnUse"
     id="clipPath960"><rect
       style="fill:none;stroke-width:0.983773"
       id="rect962"
       width="117.59531"
       height="119.2684"
       x="4.683588"
       y="340.05902" /></clipPath></defs><sodipodi:namedview
   id="namedview67"
   pagecolor="#ffffff"
   bordercolor="#000000"
   borderopacity="0.25"
   inkscape:showpageshadow="2"
   inkscape:pageopacity="0.0"
   inkscape:pagecheckerboard="0"
   inkscape:deskcolor="#d1d1d1"
   showgrid="false"
   inkscape:zoom="2.1718515"
   inkscape:cx="301.586"
   inkscape:cy="59.626545"
   inkscape:window-width="2490"
   inkscape:window-height="1376"
   inkscape:window-x="70"
   inkscape:window-y="27"
   inkscape:window-maximized="1"
   inkscape:current-layer="Layer_1" />
<path
   fill="#5f810e"
   d="m 97.81,377.25 c 0,0 -9.569,0 -9.905,0 0,-0.335 0,-13.592 0,-13.592 0,-13.517 -10.985,-24.501 -24.501,-24.501 -13.516,0 -24.502,10.984 -24.502,24.501 0,0 0,13.219 0,13.592 -0.334,0 -9.719,0 -9.719,0 -13.517,0 -24.501,10.984 -24.501,24.5 0,13.48 10.985,24.465 24.501,24.465 0,0 9.384,0 9.719,0 0,0.335 0,8.862 0,8.862 0,13.518 10.985,24.465 24.502,24.465 13.517,0 24.501,-10.984 24.501,-24.465 0,0 0,-8.527 0,-8.862 0.335,0 9.905,0 9.905,0 13.517,0 24.502,-10.982 24.502,-24.465 0,-13.516 -10.986,-24.5 -24.502,-24.5 z M 48.248,363.658 c 0,-8.378 6.814,-15.155 15.155,-15.155 8.49,0 15.379,6.665 15.379,14.932 0,8.341 -6.889,15.155 -15.379,15.155 h -1.825 v -7.41 h 1.825 c 4.319,0 7.932,-3.537 7.932,-7.745 0,-4.133 -3.575,-7.521 -7.932,-7.521 -4.282,0 -7.746,3.5 -7.746,7.745 v 29.007 l -7.41,6.033 z m 30.348,71.419 c 0,8.379 -6.815,15.192 -15.193,15.192 -8.378,0 -15.155,-6.813 -15.155,-15.192 v -9.458 h 7.41 v 9.458 c 0,4.283 3.463,7.745 7.746,7.745 4.283,0 7.745,-3.5 7.745,-7.745 V 410.8 l 7.41,-5.958 v 30.235 z M 97.81,416.906 H 87.756 v -7.447 H 97.81 c 4.283,0 7.745,-3.464 7.745,-7.745 0,-4.28 -3.462,-7.746 -7.745,-7.746 H 83.101 c -1.973,0 -3.76,0.597 -6.181,2.011 -0.447,0.26 -2.197,1.526 -2.83,2.048 -14.783,11.877 -17.054,13.701 -17.24,13.853 -0.596,0.446 -2.085,1.601 -3.091,2.159 -2.792,1.712 -5.734,2.719 -8.564,2.904 H 29.221 c -8.379,0 -15.193,-6.814 -15.193,-15.155 0,-8.378 6.814,-15.193 15.193,-15.193 h 10.053 v 7.411 H 29.221 c -4.283,0 -7.746,3.463 -7.746,7.744 0,4.245 3.463,7.746 7.746,7.746 0,0 15.415,0 15.378,0 1.75,-0.111 3.538,-0.745 5.623,-2.01 l 2.01,-1.416 c 0,0 17.167,-13.853 17.204,-13.815 0.038,-0.036 2.682,-2.122 4.096,-2.867 3.24,-1.899 6.293,-2.755 9.57,-2.755 H 97.81 c 8.378,0 15.193,6.815 15.193,15.193 -0.001,8.266 -6.815,15.08 -15.193,15.08 z"
   id="path18"
   clip-path="url(#clipPath960)"
   transform="translate(-0.00158803,-0.902021)" />























</svg>
