<?xml version="1.0" encoding="UTF-8" standalone="no"?>
<!-- Created with Inkscape (http://www.inkscape.org/) -->

<svg
   version="1.0"
   width="67.386917"
   height="88.585197"
   id="svg3833"
   sodipodi:docname="University_of_Surrey_Logo.svg"
   inkscape:version="1.3.1 (9b9bdc1480, 2023-11-25, custom)"
   xmlns:inkscape="http://www.inkscape.org/namespaces/inkscape"
   xmlns:sodipodi="http://sodipodi.sourceforge.net/DTD/sodipodi-0.dtd"
   xmlns="http://www.w3.org/2000/svg"
   xmlns:svg="http://www.w3.org/2000/svg">
  <sodipodi:namedview
     id="namedview1"
     pagecolor="#ffffff"
     bordercolor="#000000"
     borderopacity="0.25"
     inkscape:showpageshadow="2"
     inkscape:pageopacity="0.0"
     inkscape:pagecheckerboard="0"
     inkscape:deskcolor="#d1d1d1"
     inkscape:zoom="5.9566667"
     inkscape:cx="8.9815333"
     inkscape:cy="44.487969"
     inkscape:window-width="2490"
     inkscape:window-height="1376"
     inkscape:window-x="70"
     inkscape:window-y="27"
     inkscape:window-maximized="1"
     inkscape:current-layer="svg3833" />
  <defs
     id="defs3835" />
  <g
     id="g1"
     style="fill:#004682;fill-opacity:1;stroke:#004682;stroke-opacity:1">
    <path
       d="m 23.00384,21.829634 c 0,0 2.70498,-0.70398 4.80758,-0.26335 2.10157,0.43753 0.3805,1.66923 0.3805,1.66923 0,0 -2.06942,1.15394 -4.15544,1.51474 -2.08601,0.35562 -0.95177,-2.42608 -0.95177,-2.42608"
       id="path448"
       style="fill:#004682;fill-opacity:1;stroke:#004682;stroke-width:0.424979;stroke-linecap:butt;stroke-linejoin:miter;stroke-miterlimit:4;stroke-opacity:1" />
    <path
       d="m 15.55993,12.770194 c 0,0 -1.74554,4.7744 0.92336,6.73081 2.49057,1.81853 4.71862,-0.57127 5.05869,-0.63969 0.28304,-0.0612 -0.81803,-0.69672 -0.81803,-0.69672 0,0 -0.53498,0.59511 -1.68063,0.92792 -3.09056,0.8906 -4.13947,-3.19538 -3.12695,-5.95738 0.0324,-0.085 -0.16609,-0.52254 -0.35644,-0.36494 z"
       id="path456"
       style="fill:#004682;fill-opacity:1;stroke:#004682;stroke-width:0.585784;stroke-linecap:butt;stroke-linejoin:miter;stroke-miterlimit:4;stroke-opacity:1" />
    <path
       d="m 19.56171,10.919524 c 0,0 -3.22015,4.79929 -0.90718,7.22537 2.15858,2.2633 5.22022,0.0446 5.60486,0.0197 0.31622,-0.0239 -0.68013,-0.84602 -0.68013,-0.84602 0,0 -0.74545,0.55883 -2.06631,0.74856 -3.56759,0.51839 -3.53928,-3.93564 -1.67234,-6.71423 0.0612,-0.085 -0.028,-0.57127 -0.2789,-0.43338 z"
       id="path440"
       style="fill:#004682;fill-opacity:1;stroke:#004682;stroke-width:0.585784;stroke-linecap:butt;stroke-linejoin:miter;stroke-miterlimit:4;stroke-opacity:1" />
    <path
       d="m 22.22625,21.315384 c 0,0 -0.90304,-6.02995 2.41779,-9.80074 3.32497,-3.7666499 5.25236,-5.0418899 5.97396,-7.0708899 0.72057,-2.03728 0.86261,-3.90453005 0.65525,-4.12330005 -0.21046,-0.21876 -0.43234,0.79418005 -0.44893,1.04509005 -0.0446,0.67598 -0.54638,2.57123 -1.353,3.70132 -2.21561,3.1031 -4.84387,4.60126 -6.14711,6.6302499 -0.94036,1.46187 -2.69357,4.39805 -2.16688,8.37516 0.52565,3.97297 1.06892,1.24311 1.06892,1.24311 z"
       id="path392"
       style="fill:#004682;fill-opacity:1;stroke:#004682;stroke-width:0.585784;stroke-linecap:butt;stroke-linejoin:miter;stroke-miterlimit:4;stroke-opacity:1" />
    <path
       d="m 27.81868,7.2741841 c -1.70033,-1.71277 -1.33642,-4.49965 0.0487,-5.60487 0.0529,-0.0446 -0.004,-0.4904 -0.20632,-0.5101 0,0 -2.83457,2.25916 -1.04508,5.47942 0.23535,0.42508 0.49455,0.79003 0.75789,1.09381 z"
       id="path408"
       style="fill:#004682;fill-opacity:1;stroke:#004682;stroke-width:0.585784;stroke-linecap:butt;stroke-linejoin:miter;stroke-miterlimit:4;stroke-opacity:1" />
    <path
       d="m 23.40508,12.944374 c -1.28872,-1.71692 -0.88334,-4.1792899 0.4002,-5.2005199 0.0487,-0.0446 0,-0.48937 -0.21047,-0.50596 0,0 -2.83042,2.25605 -1.04093,5.4752699 0.13374,0.24365 0.27164,0.45826 0.41368,0.66044 z"
       id="path416"
       style="fill:#004682;fill-opacity:1;stroke:#004682;stroke-width:0.585784;stroke-linecap:butt;stroke-linejoin:miter;stroke-miterlimit:4;stroke-opacity:1" />
    <path
       d="m 37.26795,8.7889341 c 0,0 1.17779,6.0060999 -2.23946,7.4316799 -3.18397,1.32398 -5.32597,-2.08912 -5.70232,-2.26745 -0.32037,-0.15863 1.05648,-0.55157 1.05648,-0.55157 0,0 0.5101,0.84291 1.7698,1.56762 3.40169,1.96886 5.32182,-2.39705 4.64169,-5.8640599 -0.0207,-0.11405 0.2789,-0.55468 0.47381,-0.31622 z"
       id="path400"
       style="fill:#004682;fill-opacity:1;stroke:#004682;stroke-width:0.585784;stroke-linecap:butt;stroke-linejoin:miter;stroke-miterlimit:4;stroke-opacity:1" />
    <path
       d="m 22.81308,21.502004 c 0,0 2.02173,-6.12741 7.79248,-7.73132 5.77076,-1.60805 8.56178,-1.48675 10.56175,-3.22751 1.9927,-1.7417999 4.07457,-5.1517899 3.72206,-5.2046699 -0.39294,-0.0529 -1.21823,0.94762 -1.39241,1.21926 -0.45411,0.73301 -2.31307,2.8916 -3.81952,3.6121699 -2.78273,1.32086 -8.70382,1.76979 -10.55863,2.72985 -1.85481,0.96422 -5.50326,2.83873 -7.38296,7.82463 -1.8828,4.97761 1.07723,0.77759 1.07723,0.77759 z"
       id="path384"
       style="fill:#004682;fill-opacity:1;stroke:#004682;stroke-width:0.585784;stroke-linecap:butt;stroke-linejoin:miter;stroke-miterlimit:4;stroke-opacity:1" />
    <path
       d="m 40.65721,10.368994 c -1.05649,-2.8470199 0.23535,-5.8526599 2.53183,-7.1082099 0.0892,-0.0529 0.66769,-0.69257 0.37635,-0.79003 0,0 -5.10721,2.16274 -4.02584,7.27824 0.0809,0.3846499 0.17833,0.7371599 0.29548,1.0647799 z"
       id="path424"
       style="fill:#004682;fill-opacity:1;stroke:#004682;stroke-width:0.585784;stroke-linecap:butt;stroke-linejoin:miter;stroke-miterlimit:4;stroke-opacity:1" />
    <path
       d="m 28.98921,11.247154 c 0,0 3.00565,4.97761 0.29238,7.86506 -2.53598,2.68527 -5.61006,0.53083 -6.0227,0.53913 -0.34006,0.004 0.80973,-0.99221 0.80973,-0.99221 0,0 0.7496,0.54224 2.14719,0.63141 3.7822,0.23949 4.17514,-4.65725 2.43748,-7.54055 -0.0601,-0.085 0.0809,-0.62829 0.33592,-0.50284 z"
       id="path432"
       style="fill:#004682;fill-opacity:1;stroke:#004682;stroke-width:0.585784;stroke-linecap:butt;stroke-linejoin:miter;stroke-miterlimit:4;stroke-opacity:1" />
    <path
       d="m 28.30908,82.457784 c 11.63171,-2.16273 25.64388,-0.53083 33.17717,0.57127 4.19172,0.61482 5.59761,0.28305 5.59761,0.28305 0,0 -4.3825,-0.8709 -6.84072,-1.56763 -12.1501,-3.45042 -44.76419,-9.12372 -46.6191,6.84072 0,0 4.12693,-4.15959 14.68504,-6.12741"
       id="path532"
       style="fill:#004682;fill-opacity:1;fill-rule:nonzero;stroke-width:0;stroke-linecap:butt;stroke-linejoin:miter;stroke-miterlimit:4;stroke:#004682;stroke-opacity:1" />
    <path
       d="m 19.69131,72.381264 c 1.24726,0 2.25916,1.05752 2.25916,2.36076 0,1.30428 -1.0119,2.36595 -2.25916,2.36595 -1.25181,0 -2.2603,-1.06167 -2.2603,-2.36595 0,-1.30324 1.00849,-2.36076 2.2603,-2.36076 z m 44.19717,-15.66066 c -0.19077,-1.41003 0.38879,-8.05169 0.38879,-8.05169 l 0.57438,7.04289 c 0,0 1.33227,-2.06113 1.53963,-6.43948 0.24676,-5.16319 -2.31722,-8.72766 -6.33062,-10.04749 -2.0041,-0.66044 -3.79463,-0.26749 -5.04604,-0.1379 -3.95326,0.4085 -7.46382,0.0767 -8.96301,0.14204 -8.89356,0.40435 -11.13716,-2.41467 -12.84579,-5.04707 -3.2721,-5.04604 -3.89209,-4.31303 -7.11961,-10.76392 -2.71431,-5.42343 -5.20052,-2.04143 -9.6191,-0.64799 -1.30811,0.41264 -5.74276,2.06943 -6.0992,2.23116 -0.36039,0.16174 -0.25516,1.12181 -0.23898,1.46602 0.0163,0.24676 1.08945,1.33227 1.4094,1.46602 0.31996,0.13789 6.68645,1.75735 8.50445,2.23116 0,0 0.67702,1.46602 -0.87401,6.87701 -1.18691,4.11915 0.19803,6.49235 0.19803,6.49235 0,0 -2.40151,-1.66093 -4.58446,-3.18293 -2.20722,-1.54378 -9.2014802,1.55103 -13.3283102,4.53905 -1.68478003,1.21926 -1.44186003,2.92477 -1.44186003,2.92477 l 2.03314003,4.47477 1.90344,-1.08966 0.0243,-0.0114 v 0 c -0.7046,-0.20736 -1.21895,-0.86676 -1.21895,-1.64435 0,-0.93933 0.75322,-1.70966 1.68073,-1.70966 0.92741,0 1.68478,0.77033 1.68478,1.70966 0,0.0404 -0.004,0.0767 -0.004,0.11716 l -0.004,0.0238 c 0.2592,-0.60341 0.85462,-1.0285 1.54305,-1.0285 0.92751,0 1.68073,0.7693 1.68073,1.70966 0,0.94348 -0.75322,1.70863 -1.68073,1.70863 -0.0486,0 -0.0931,-0.004 -0.13769,-0.008 l -0.004,0.004 c 0.45359,0.30793 0.75333,0.83047 0.75333,1.42144 0,0.94451 -0.75737,1.70966 -1.68478,1.70966 -0.92751,0 -1.68073,-0.76515 -1.68073,-1.70966 0,-0.16174 0.0243,-0.31933 0.0648,-0.46552 l -0.008,-0.004 -0.0244,0.008 -1.98036,0.91133 1.97632,3.94912 5.5970902,-2.72156 6.02218,14.34083 -2.59601,8.34613 8.56551,3.15079 3.09792,-8.51616 -6.3949,-3.69407 -10.5172602,-24.85799 0.21876,-0.0975 c 1.05296,-0.39294 2.1018802,-0.7496 3.0859902,-1.02849 2.04931,-0.57957 8.02743,8.31399 9.18552,9.05943 1.72106,1.10522 2.72985,0.91549 3.78634,0.96422 l -0.0529,-0.0446 c -0.13374,-0.1016 -0.27475,-0.21461 -0.42923,-0.3328 -5.39025,-4.171 -3.20678,-12.03191 -3.20678,-12.03191 0.11301,8.01021 4.80655,13.13816 4.94858,13.47408 l 0.0446,0.0684 c 0.1016,0.16278 0.20632,0.34836 0.31207,0.55468 1.54274,3.01809 -0.80973,24.73773 -0.80973,24.73773 l 2.31618,-0.95177 c 0,0 4.15959,-21.58278 4.78684,-21.46459 10.10038,1.81438 14.78665,-6.08697 18.68289,8.73181 0.56609,2.14615 -11.74575,12.69234 -11.74575,12.69234 0,0 2.41053,0.40435 4.12745,-0.86675 4.62925,-3.43902 13.0407,-12.13766 12.62391,-12.429 -0.58371,-0.40538 -2.31307,-3.82781 -2.31307,-4.43122 0,-0.46966 0.35251,-2.28404 0.8709,-2.87086 l -0.004,-0.004 c -0.1296,-0.0653 -0.26749,-0.13789 -0.42093,-0.21461 -5.62561,-2.84391 -5.62561,-11.85462 -5.62561,-11.85462 1.96471,8.30673 7.01075,12.32428 7.42754,12.77736 1.82682,1.96885 5.55718,6.74325 5.86821,8.69552 0.38465,2.41779 -8.97857,13.51451 -8.97857,13.51451 0,0 3.69822,0.54743 4.31303,-0.98391 0.45826,-1.13839 9.86192,-12.93598 9.66804,-13.93959 -0.19077,-1.00465 -3.30113,-7.53329 -3.49501,-8.94228"
       id="path536"
       style="fill:#004682;fill-opacity:1;fill-rule:nonzero;stroke-width:0;stroke-linecap:butt;stroke-linejoin:miter;stroke-miterlimit:4;stroke:#004682;stroke-opacity:1" />
  </g>
</svg>
