<?xml version="1.0" encoding="UTF-8" standalone="no"?>
<!-- Created with Inkscape (http://www.inkscape.org/) -->

<svg
   width="31.284332mm"
   height="31.284332mm"
   viewBox="0 0 31.284332 31.284332"
   version="1.1"
   id="svg1330"
   inkscape:version="1.1.2 (0a00cf5339, 2022-02-04)"
   sodipodi:docname="uos_logo_2.svg"
   xmlns:inkscape="http://www.inkscape.org/namespaces/inkscape"
   xmlns:sodipodi="http://sodipodi.sourceforge.net/DTD/sodipodi-0.dtd"
   xmlns="http://www.w3.org/2000/svg"
   xmlns:svg="http://www.w3.org/2000/svg">
  <sodipodi:namedview
     id="namedview1332"
     pagecolor="#ffffff"
     bordercolor="#666666"
     borderopacity="1.0"
     inkscape:pageshadow="2"
     inkscape:pageopacity="0.0"
     inkscape:pagecheckerboard="0"
     inkscape:document-units="mm"
     showgrid="false"
     fit-margin-top="0"
     fit-margin-left="0"
     fit-margin-right="0"
     fit-margin-bottom="0"
     inkscape:zoom="3.9408307"
     inkscape:cx="43.518744"
     inkscape:cy="74.730437"
     inkscape:window-width="1850"
     inkscape:window-height="1016"
     inkscape:window-x="0"
     inkscape:window-y="0"
     inkscape:window-maximized="1"
     inkscape:current-layer="layer1" />
  <defs
     id="defs1327">
    <clipPath
       clipPathUnits="userSpaceOnUse"
       id="clipPath1305">
      <rect
         style="fill:none;fill-opacity:1;stroke:#000000;stroke-opacity:1"
         id="rect1307"
         width="118.24"
         height="118.24"
         x="0"
         y="0" />
    </clipPath>
  </defs>
  <g
     inkscape:label="Layer 1"
     inkscape:groupmode="layer"
     id="layer1"
     transform="translate(-73.989547,-87.662181)">
    <path
       fill="#fff"
       class="cls-4"
       d="m 59.89,26.08 c -1.68,0.31 -3.34,0.69 -4.99,1.14 0.77,0.73 1.81,1.4 2.92,1.19 1.11,-0.26 1.69,-1.35 2.07,-2.33 m -11.5,5.81 c 1.11,0.38 2.49,0.59 3.47,-0.2 1.11,-0.92 1.24,-2.49 1.13,-3.83 -1.9,0.83 -3.48,2.31 -4.61,4.03 m -6.94,56.1 c 0.36,1.02 1.56,1.72 2.62,1.38 1,-0.27 1.74,-1.29 1.64,-2.33 0.06,-1.45 -1.59,-2.69 -2.95,-2.1 -1.19,0.42 -1.79,1.9 -1.31,3.05 M 50.8,73.95 c 0,-1.97 0.1,-3.95 -0.24,-5.9 -0.19,-1.17 -1.09,-2 -1.7,-2.96 A 22.19,22.19 0 0 1 45.05,53.57 c -0.67,2.9 -0.56,6.1 0.82,8.79 a 9.78,9.78 0 0 0 2.85,3.22 c -1.56,0.05 -3.28,-0.31 -4.35,-1.55 -1.81,-2.11 -3.45,-4.37 -5.38,-6.38 a 12.2,12.2 0 0 0 -1.8,-1.57 c -0.38,-0.25 -0.84,-0.51 -1.32,-0.37 -1.09,0.29 -2.14,0.68 -3.19,1.07 3.4,8.06 6.82,16.12 10.23,24.17 0.11,0.32 0.42,0.48 0.69,0.64 1.92,1.08 3.81,2.21 5.73,3.29 -0.76,2.18 -1.57,4.34 -2.36,6.52 0.87,-0.22 1.74,-0.41 2.62,-0.6 0.52,-5.61 1.03,-11.23 1.2,-16.87 m 24.04,3.88 C 74.19,75.52 73.48,73.18 72.1,71.22 a 5,5 0 0 0 -3.53,-2.19 c -1.81,-0.2 -3.6,0.27 -5.38,0.48 a 21,21 0 0 1 -6.76,-0.03 c -0.55,1.44 -0.85,2.97 -1.21,4.46 a 584.11,584.11 0 0 0 -3.41,16.54 c 3.88,-0.44 7.79,-0.36 11.67,-0.06 2.05,-1.78 4.06,-3.59 6,-5.48 1.64,-1.61 3.31,-3.23 4.67,-5.1 0.39,-0.6 0.93,-1.28 0.67,-2.04 m 10.52,2.81 c 0.54,-1.08 -0.18,-2.19 -0.69,-3.13 a 40.68,40.68 0 0 0 -5.01,-6.6 24.23,24.23 0 0 1 -7.16,-12.35 c 0.02,2.25 0.49,4.5 1.32,6.6 a 9.23,9.23 0 0 0 4.58,5.14 5.72,5.72 0 0 0 -0.76,3.12 14.97,14.97 0 0 0 2.26,4.18 c -1.62,2.19 -3.62,4.07 -5.53,6 a 81.6,81.6 0 0 1 -6.66,5.94 4.4,4.4 0 0 1 -2.41,1.01 v 0.27 l 0.11,-0.21 c 2.57,0.29 5.13,0.63 7.68,1.08 1.35,0.22 2.67,0.53 4.02,0.73 a 144.2,144.2 0 0 0 4.22,-5.37 c 1.48,-2.04 3.04,-4.08 4.04,-6.41 m 5.06,-2.16 c -0.3,0.72 -0.78,1.36 -1.2,2.02 -1.91,2.78 -3.96,5.45 -5.96,8.15 -0.83,1.14 -1.7,2.25 -2.42,3.47 -0.34,0.55 -1.03,0.65 -1.6,0.82 1.72,0.39 3.41,0.85 5.11,1.32 1.93,0.52 3.9,0.85 5.84,1.36 -2.29,0.18 -4.58,-0.19 -6.84,-0.51 -8.06,-1.1 -16.22,-1.77 -24.35,-1.23 -4.43,0.31 -8.87,1 -13.09,2.42 -3,1.03 -5.96,2.38 -8.4,4.46 a 9.48,9.48 0 0 1 3.08,-6.07 c 1,-0.94 2.21,-1.61 3.42,-2.23 -2.06,-0.74 -4.11,-1.5 -6.16,-2.26 0.83,-2.74 1.69,-5.48 2.55,-8.21 L 34.46,67.84 C 32.6,68.7 30.78,69.64 28.92,70.5 28.3,69.19 27.6,67.92 27.01,66.6 l 1.92,-0.88 c 0,0.53 0,1.13 0.39,1.55 0.66,0.84 2.12,0.74 2.65,-0.19 0.49,-0.72 0.25,-1.71 -0.39,-2.26 0.69,-0.08 1.4,-0.45 1.61,-1.17 0.45,-1.09 -0.59,-2.41 -1.75,-2.22 -0.56,0.05 -0.99,0.44 -1.27,0.9 -0.1,-0.72 -0.5,-1.46 -1.25,-1.65 -1.03,-0.36 -2.18,0.57 -2.11,1.64 -0.03,0.74 0.57,1.25 1.11,1.65 -0.61,0.34 -1.22,0.69 -1.84,1.01 -0.57,-1.29 -1.16,-2.56 -1.74,-3.84 -0.65,-1.16 0.08,-2.61 1.04,-3.35 a 31.95,31.95 0 0 1 6.21,-3.52 18.07,18.07 0 0 1 4.54,-1.39 c 0.88,-0.1 1.87,-0.14 2.62,0.41 l 4.36,3.03 c -0.89,-2.09 -0.73,-4.47 -0.07,-6.6 0.53,-2.02 1.1,-4.1 0.88,-6.2 0.03,-0.32 -0.32,-0.36 -0.55,-0.43 -2.48,-0.62 -4.96,-1.27 -7.43,-1.92 -0.7,-0.15 -1.2,-0.69 -1.64,-1.21 -0.37,-0.41 -0.28,-1.01 -0.22,-1.51 0.05,-0.32 0.41,-0.4 0.66,-0.51 1.91,-0.7 3.81,-1.43 5.74,-2.07 1.48,-0.49 2.85,-1.24 4.27,-1.87 l -0.16,-1.06 c -0.69,0.37 -1.43,0.73 -2.24,0.74 a 3.7,3.7 0 0 1 -3.59,-2.83 8.63,8.63 0 0 1 0.51,-5.14 c 0.42,0.02 0.91,0.35 0.74,0.83 -0.46,1.59 -0.53,3.47 0.5,4.86 0.5,0.69 1.4,0.83 2.19,0.7 -0.58,-0.62 -1.18,-1.3 -1.29,-2.18 -0.29,-2.03 0.59,-4 1.62,-5.7 0.13,-0.34 0.68,-0.38 0.81,-0.01 0.26,0.37 -0.05,0.77 -0.22,1.1 -0.76,1.34 -1.2,3.01 -0.71,4.52 0.22,0.73 0.92,1.16 1.65,1.24 0.13,-1.71 0.68,-3.37 1.46,-4.88 a 5.33,5.33 0 0 1 -0.59,-2.17 4.66,4.66 0 0 1 1.28,-3.19 c 0.24,-0.23 0.48,-0.59 0.86,-0.44 0.3,0.25 0.39,0.78 0.06,1.04 a 3.67,3.67 0 0 0 -0.85,3.46 c 1.04,-1.49 2.48,-2.62 3.77,-3.88 a 5.65,5.65 0 0 1 -1.1,-2.69 4.64,4.64 0 0 1 1.79,-3.97 c 0.42,-0.04 0.64,0.41 0.61,0.78 -0.32,0.51 -0.8,0.92 -0.98,1.52 a 3.83,3.83 0 0 0 0.52,3.51 c 0.71,-0.82 1.46,-1.63 1.95,-2.61 0.55,-1.06 0.74,-2.25 0.97,-3.42 a 0.7,0.7 0 0 1 0.85,-0.61 c 0.15,0.81 0.09,1.64 -0.08,2.45 a 8.73,8.73 0 0 1 -1.43,3.61 c -1.05,1.39 -2.39,2.53 -3.56,3.82 -0.82,0.92 -1.74,1.77 -2.37,2.83 a 11.3,11.3 0 0 0 -1.45,4.57 c 0.44,-0.2 0.87,-0.43 1.15,-0.83 a 14.9,14.9 0 0 1 5.03,-3.91 C 52.17,25.52 51.7,24.74 52.4,24.3 c 0.7,-0.04 0.79,0.87 1.1,1.33 2.2,-0.65 4.49,-0.87 6.7,-1.47 -0.03,-0.61 -0.1,-1.22 -0.19,-1.83 0.19,-0.2 0.39,-0.39 0.59,-0.57 L 61.05,22 c 0.11,0.63 0.18,1.27 0.22,1.92 0.51,-0.14 1.01,-0.31 1.51,-0.49 a 6.43,6.43 0 0 1 0.25,-3.88 7.59,7.59 0 0 1 3.64,-3.73 c 0.24,-0.15 0.69,-0.18 0.68,0.2 0.04,0.63 -0.58,0.98 -1.03,1.29 a 5.5,5.5 0 0 0 -2.21,5.29 14.22,14.22 0 0 0 2.71,-2.93 c 0.44,-0.58 1.03,-1.32 1.86,-1.07 -0.11,0.92 -0.68,1.68 -1.17,2.43 a 17.15,17.15 0 0 1 -2.62,3.08 8.03,8.03 0 0 1 -3.65,1.67 C 61,27.32 60.4,29.04 58.88,29.73 57.41,30.5 55.6,30.08 54.36,29.06 a 4.72,4.72 0 0 1 -2.2,4.34 c -1.41,0.91 -3.23,0.68 -4.69,0 l -0.19,0.38 c 0.4,0.23 0.78,0.48 1.16,0.75 1.26,-0.14 2.61,-0.22 3.8,0.29 0.46,0.18 0.62,0.78 0.33,1.18 -0.53,0.8 -1.53,1.04 -2.35,1.44 a 29.27,29.27 0 0 0 2.89,4.77 c 0.9,1.17 1.85,2.3 2.7,3.52 0.89,1.23 1.6,2.61 2.71,3.66 a 9.08,9.08 0 0 0 4.34,2.31 c 2.29,0.57 4.68,0.58 7.03,0.48 2.95,0.05 5.91,0.19 8.84,-0.18 a 11.5,11.5 0 0 1 3.61,-0.05 8.76,8.76 0 0 1 6.13,4.66 c 1.11,2.19 1.2,4.72 0.9,7.12 A 12.92,12.92 0 0 1 88,68.4 c -0.25,-2.24 -0.36,-4.49 -0.6,-6.72 -0.17,2.09 -0.31,4.18 -0.41,6.27 -0.03,0.78 -0.01,1.58 0.27,2.32 0.9,2.51 2.07,4.91 3.04,7.39 0.08,0.28 0.25,0.58 0.11,0.87 m 27.8,-19.36 A 59.09,59.09 0 0 0 59.12,0 59.12,59.12 0 1 0 118.24,59.12 m 33.75,-30.96 c 4.9,0 8.17,-2.98 8.17,-8.71 V 8.18 h -2.21 v 11.44 c 0,4.3 -2.29,6.49 -5.9,6.49 -3.61,0 -5.99,-2.39 -5.99,-6.63 V 8.18 h -2.21 v 11.44 c 0,5.56 3.3,8.54 8.14,8.54"
       id="path2"
       style="fill:#00468f;fill-opacity:1"
       clip-path="url(#clipPath1305)"
       transform="matrix(0.26458333,0,0,0.26458333,73.989547,87.662181)" />
  </g>
</svg>
